<svg xmlns="http://www.w3.org/2000/svg" height="181.333" width="417.333" xml:space="preserve"><path style="fill:#fff;fill-opacity:1;fill-rule:nonzero;stroke:none" d="M1941.68 916.09c-4.92 4.57-9.92 9.031-15.04 13.32-4.96 4.262-9.88 8.52-14.73 12.891a85.476 85.476 0 0 0-12.34 13.679c-3.52 4.879-6.41 10.43-8.55 16.52-2.15 5.98-3.25 14.102-3.25 24.18 0 9.45 2.89 17.19 8.75 23.59 5.16 5.59 11.68 8.28 19.96 8.28 7.43 0 13.25-2.22 17.78-6.83 2.07-2.19 3.67-4.69 4.8-7.54 1.14-2.85 1.72-5.9 1.72-9.06 0-3.48-.66-8.831-1.91-16.061-.75-4.649.11-8.59 2.5-11.68 3.08-4.059 6.87-4.918 9.53-4.918 2.46 0 6.13.777 9.72 4.527 2.66 2.813 4.18 6.063 4.54 9.731.27 2.929.39 4.922.31 5.98-.04.582 0 1.129.12 2.071.74 18.2-3.83 32.77-13.6 43.32-8.87 9.33-20.35 14.06-34.14 14.06-15.78 0-29.1-5.55-39.57-16.49-10.55-10.97-15.9-25.5-15.9-43.121 0-16.918 4.53-32.187 13.52-45.469a99.274 99.274 0 0 1 13.79-16.371c4.96-4.758 10.04-9.328 15.23-13.789 5.08-4.332 10.08-8.711 14.88-13.121 16.29-14.918 24.18-31.367 24.18-50.309 0-13.91-2.93-24.57-8.67-31.718-5.54-6.922-12.85-10.242-22.3-10.242-9.53 0-16.68 3.089-21.92 9.421-2.65 3.278-4.76 7.379-6.29 12.219-1.56 4.961-2.34 10.391-2.34 16.18 0 6.91-.55 11.871-1.64 15.191-1.6 4.77-5.78 7.5-11.44 7.5-9.18 0-13.83-8.551-13.83-25.429 0-14.723 4.88-28.161 14.53-39.883 10.39-12.77 24.06-19.258 40.62-19.258 17.62 0 31.92 6.25 42.5 18.519 10.55 12.18 15.86 28.508 15.86 48.551 0 17.11-4.53 32.5-13.55 45.739a98.335 98.335 0 0 1-13.83 15.82M2033.52 793.75h.03l-.03-.039zm-14.46 92.93c2.15 3.789 4.77 6.718 7.82 8.789 2.89 1.91 6.01 2.89 9.57 2.89 3.47 0 6.36-.898 8.82-2.699 8.87-6.601 13.4-19.64 13.4-38.82 0-12.738-2.3-23.559-6.76-32.149-4.61-8.75-10.35-13.011-17.53-13.011-6.61 0-11.8 2.89-15.83 8.91-4.41 6.519-6.64 17.219-6.64 31.75 0 14.648 2.39 26.18 7.15 34.34m19.14 34.019c-14.96 0-27.18-5.777-36.21-17.109-9.37-11.52-14.1-27.34-14.1-46.91 0-21.602 4.38-38.629 12.93-50.59 4.14-5.969 9.18-10.43 14.96-13.281 5.47-2.731 11.45-4.098 17.74-4.098h.78c13.79.238 25.27 6.449 34.14 18.48 9.45 12.809 14.26 30.039 14.26 51.168 0 19.102-4.18 34.45-12.47 45.743-8.39 11.019-19.18 16.597-32.03 16.597M2237.03 828.59c-6.72 0-11.37-4.289-12.46-10.969-1.52-4.262-4.02-6.101-8.28-6.101-1.49 0-3.44.39-5.47 3.679-.78 1.281-1.99 4.063-3.36 10.11-.74 3.32-1.64 17.461-1.72 65.671 1.29.04 2.66.04 4.06.04h9.11c1.75 0 3.59-.04 5.43-.079 1.79-.043 3.51-.121 5.07-.203l1.25-.039c1.76 0 3.44.242 4.96.75 7.58 2.61 8.72 8.082 8.72 11.129 0 2.973-1.06 12.621-15.36 12.621h-.03c-1.96 0-5.16-.238-9.73-.789-3.17-.39-7.58-.621-13.2-.699.23 10.269.78 19.488 1.52 27.34.58 5.078-.47 9.109-3.16 11.918-5.04 5.39-12.93 5.472-18.33.121-2.65-2.699-4.02-6.57-4.02-11.488v-27.34l-1.72.039c-4.49 0-8.08-1.18-10.7-3.52-.27-.269-.43-.511-.66-.781-1.92 3.09-5.71 5.98-13.48 5.98l-19.42-.628c-.03 10.82-.11 21.918-.31 33.359-.58 49.41 1.06 80.199 4.88 91.409 1.84 5.04 3.68 7.11 4.89 7.93 1.79 1.25 3.51 1.87 5.31 1.87 2.73 0 4.3-.35 5.08-.62 1.56-.55 5.7-2.03 5.78-11.25l-2.07-12.7c0-8.98 5-14.33 13.4-14.33 2.73 0 6.76.93 10.23 5.19 2.62 3.17 3.91 8.13 3.91 15.16 0 6.21-.86 12.07-2.5 17.38-6.45 21.33-20.59 25.82-31.33 25.82-16.05 0-27.77-7.89-33.94-22.85-2.9-7.31-4.97-16.8-6.18-28.13-1.17-11.13-1.79-27.809-1.79-49.641 0-18.328.07-37.5.27-57.578l-3.05.188c-3.24 0-6.29-.938-9.14-2.887a13.903 13.903 0 0 1-3.87-4.102c-1.17-1.871-1.75-4.218-1.75-6.992 0-2.148.62-5.43 3.67-8.598 2.3-2.5 5.62-3.75 9.84-3.75l1.25.04c1.1.039 2.15.082 3.17.121l.23-19.219c0-10.582.04-20.121.08-28.633.04-8.437.04-15.699 0-21.719-.04-5.98-.16-10.621-.31-13.941-.2-4.609.86-8.359 3.08-11.141 2.42-3.008 5.74-4.609 9.53-4.609 2.78 0 6.8 1.062 10.2 5.98 1.33 1.762 2.3 3.981 2.85 6.481.35 1.64.66 4.648-.35 13.289-.7 5.66-1.06 23.32-1.06 52.461v22.422c.75 0 1.53.039 2.35.039 2.77 0 8.16-.242 16.05-.629 3.48-.274 5.75-.121 8.09.668 2.38 1.012 4.06 2.262 5.27 3.629.47-.739.82-1.489 1.45-2.188 2.46-2.621 6.17-3.711 11.13-3.902.55.031 1.09.07 1.64.109v-56.129c0-7.968.94-14.808 2.85-20.39 6.88-20.078 20.55-24.258 30.82-24.258 8.09 0 15.47 2.738 21.96 8.168 3 2.531 5.46 5.543 7.3 8.941 1.92 3.559 2.85 7.032 2.85 10.309 0 3.672-1.01 6.68-3.04 8.949-2.11 2.301-4.81 3.512-7.74 3.512M2364.88 878.98c1.53-2.378 3.17-4.878 4.92-7.5l10.08-15.269c1.21-1.832 2.62-4.02 4.26-6.68 1.72-2.73 3.52-5.582 5.47-8.59l6.84-10.711c-2.35-4.41-5.43-8.082-9.18-10.89-5.47-4.18-10.94-6.289-16.18-6.289-6.99 0-10.58 1.008-12.3 1.828-2.58 1.25-4.61 2.93-6.29 5.121-1.76 2.27-3.09 5-3.98 8.09-.94 3.238-1.41 7.691-1.41 13.281 0 3.551 1.52 10.469 8.79 23.359 2.58 4.532 5.35 8.942 8.24 13.161zm7.27 152.66c8.01 0 13.94-2.97 18.12-8.98 2.31-3.32 4.11-7.7 5.39-12.97 1.33-5.51 2-13.319 2-23.241 0-9.687-1.88-19.34-5.63-28.679-1.68-4.372-3.71-8.469-6.01-12.18a156.251 156.251 0 0 0-7.58-11.211 384.73 384.73 0 0 0-8.48-10.938c-.66-.82-1.33-1.64-1.99-2.5-1.72 3.008-3.48 5.899-5.16 8.707-3.55 5.661-6.72 11.332-9.41 16.872-2.62 5.468-4.77 11.25-6.29 17.152-1.52 5.816-2.31 12.969-2.31 21.25 0 15.628 3.25 27.968 9.54 36.678 5.04 6.76 10.86 10.04 17.81 10.04m69.57-219.492c-6.41 5.43-12.66 12.262-18.6 20.352 5.32 13.789 8.01 30.27 8.01 49.18l-.15 4.879c-.12 4.492-1.49 7.972-3.99 10.39-2.42 2.352-5.43 3.602-8.63 3.602-2.38 0-5.86-.75-8.98-4.422-2.5-2.93-3.4-6.949-2.66-11.988.43-3.403.7-9.762.7-18.942 0-3.09-.19-6.097-.54-9.027-.36.547-.71 1.098-1.06 1.637l-5.74 9.031c-1.84 2.89-3.4 5.39-4.65 7.5l-10.35 17.57c-1.49 2.5-3.28 5.469-5.28 8.949 1.53 1.993 3.09 4.02 4.77 6.02 3.36 4.101 6.72 8.281 10.04 12.5 3.4 4.332 6.68 8.859 9.8 13.59 3.25 4.801 6.14 10.121 8.6 15.742 2.46 5.59 4.45 11.758 5.9 18.277 1.44 6.563 2.14 14.813 2.14 24.492 0 9.77-1.13 18.91-3.35 27.23-6.76 24.92-21.8 37.54-44.77 37.54-14.92 0-27.42-6.56-37.27-19.53-4.72-6.37-8.55-14.38-11.36-23.83-2.85-9.37-4.26-20.781-4.26-33.98 0-13.48 3.79-28.012 11.33-43.172 3.32-6.758 7.26-13.707 11.68-20.539 3-4.929 6.17-10.16 9.45-15.629a320.82 320.82 0 0 0-6.17-8.32c-16.17-21.41-24.03-38.949-24.03-53.629 0-14.422 3.99-26.172 11.84-34.961 3.95-4.262 8.75-7.621 14.26-9.93 5.58-2.3 12.5-3.429 21.25-3.429 8.9 0 17.97 2.929 26.95 8.789 5.63 3.75 10.63 8.512 14.81 14.18l.66-.821c3.01-4.027 6.48-9.027 10.43-14.89 4.22-6.868 9.61-8.321 13.4-8.321 3.08 0 5.98 1.332 8.32 3.832 2.23 2.379 3.4 5.551 3.4 9.18 0 3.91-2 7.578-5.9 10.898M2634.45 910.309c-2.61 0-6.33-.348-11.44-1.09-2.46-.391-6.25-.59-11.29-.59h-8.83c-2.89 0-5.86.242-8.83.672-6.05.859-9.68-1.41-11.44-3.281-2.39-2.54-3.67-5.668-3.67-8.989 0-3.32 1.17-6.332 3.43-8.98 2.42-2.852 5.74-4.34 9.69-4.34 2.66 0 7.31.391 14.14 1.25 4.61.551 10.31.699 16.91.508-.19-5.039-.78-11.879-1.75-20.43-3.99-34.019-14.46-51.25-31.14-51.25-3.59 0-7.07.512-10.27 1.441-13.71 4.258-30.04 26.372-30.04 107.782 0 31.367 3.4 56.129 10.08 73.547 3.36 8.951 7.73 16.101 13.05 21.331 5.04 4.92 10.23 7.54 15.93 7.97 6.02.43 11.02-.04 14.54-1.37 11.44-4.45 17.22-21.68 17.22-51.17 0-4.41 1.41-7.89 4.06-10.308 2.54-2.313 5.63-3.524 8.87-3.524 4.22 0 6.8 1.762 8.24 3.242 2.62 2.7 3.79 6.61 3.64 11.84 0 50.51-17 76.13-50.55 76.13-1.13 0-2.34-.04-3.55-.08-44.11-2.53-66.45-44.49-66.45-124.722 0-46.25 5-80.82 14.92-102.847 10.39-22.891 26.84-34.5 48.91-34.5 18.51 0 33.24 10.121 43.79 30.121 9.8 18.867 14.76 44.957 14.76 77.656 0 8.75-4.84 13.981-12.93 13.981M2705.51 811.52c-5.31 0-9.3 1.21-11.76 3.601-2.46 2.418-3.67 5.348-3.67 9.02 0 4.14.66 7.5 1.99 9.961a20.582 20.582 0 0 0 5.47 6.519c4.88 3.719 11.37 5.551 19.26 5.551 4.45 0 8.32-.352 11.56-1.051-.04-5.98-.04-11.211.04-15.711-1.06-1.988-2.46-3.941-4.18-5.859-7.11-7.891-13.56-12.031-18.71-12.031m45.7 11.289.16 54.921c0 6.61-.94 12.782-2.85 18.442-5.71 16.058-17.31 24.527-33.56 24.527-10.74 0-20.55-3.75-29.18-11.09-8.59-7.339-13.08-15.66-13.32-24.73-.16-5.578 1.13-9.801 3.83-12.609 1.56-1.61 4.41-3.52 9.1-3.52 3.05 0 5.9 1.02 8.4 2.969 2.11 1.64 4.49 4.922 3.91 10.23.46 5.039 2.38 9.102 5.85 12.5 1.49 1.492 3.09 2.582 5 3.36 1.84.742 4.5 1.14 7.78 1.14 2.38 0 4.96-1.648 7.69-4.89 2.93-3.547 4.42-9.258 4.42-16.95v-9.57c-10.67 2.231-21.76 1.211-30.63-1.68a52.034 52.034 0 0 1-15.97-8.437c-10.79-8.512-16.25-19.844-16.25-33.672 0-10.23 3.47-18.789 10.39-25.43 6.64-6.371 15.04-9.609 24.96-9.609 10.27 0 19.88 4.059 28.75 12.23 2.22-10.781 9.88-12.113 13.47-12.113 3.09 0 6.02 1.094 8.4 3.082 3.36 2.82 4.1 5.981 4.1 8.129 0 2.262-.78 5.27-2.57 9.84-1.21 3.133-1.88 7.5-1.88 12.93M2916.05 869.801c0 8.09-.74 15.121-2.26 20.937-5.74 21.723-18.91 26.293-28.95 26.293-11.17 0-20.97-5.511-29.18-16.332-1.13 2.27-2.46 4.301-3.98 6.102-2.58 3.16-5.66 5.699-9.18 7.5-7.03 3.551-15.43 3.429-22.54.738-5.12-1.918-9.8-5.078-14.02-9.449-.51 1.91-1.6 4.058-3.79 6.129-2.89 2.812-6.13 4.261-9.65 4.261-2.54 0-6.25-.82-9.57-4.609-2.54-2.973-3.71-6.762-3.4-11.211.78-14.539 1.21-26.84 1.21-36.609 0-6.172-.19-14.68-.47-25.43-.23-4.57-.39-9.449-.54-14.601-.16-5.161-.28-10.079-.39-14.77-.12-6.172.93-10.23 3.32-12.809 4.1-4.382 9.18-4.57 13.63-2.89 5.86 2.379 9.06 7.379 9.06 14.25-.7 19.89-1.05 32.578-1.05 37.777v10.82c0 1.872.04 3.942.04 5.512 1.71 9.02 4.61 16.52 8.67 22.301 1.99 2.809 4.26 5.16 6.83 6.879 2.27 1.519 4.96 2.262 8.21 2.262 1.68 0 3.9-.473 6.21-4.102 2.26-3.48 3.47-9.02 3.67-16.762.19-2.418.27-5.039.27-7.847v-12.5c0-5.231-.19-12.692-.58-22.422a561.84 561.84 0 0 0-.47-12.071c-.2-3.789-.43-7.226-.74-10.308-.59-6.02 1.75-9.461 3.79-11.25 5.35-4.692 12.65-4.809 18.39.351 2.11 1.868 4.61 5.387 4.42 11.438-.71 12.422-1.06 27.5-1.06 44.891l-.04 10.152c.94 9.058 3.4 16.598 7.39 22.418 1.72 2.539 3.79 4.57 6.17 6.019 2.11 1.332 4.73 1.993 7.93 1.993 1.56 0 3.59-.473 5.74-4.18 2.15-3.633 3.32-8.012 3.44-12.934.15-5.617.19-9.879.08-12.687-.12-2.93-.16-7.11-.16-12.461 0-5.238-.2-12.66-.62-22.309-.08-4.019-.24-7.851-.43-11.519-.2-3.602-.47-6.84-.75-9.653-.47-4.488.98-8.437 4.03-11.168 1.32-1.293 2.85-2.312 4.57-2.929 1.64-.672 3.55-.981 5.74-.981 2.93 0 5.78 1.367 8.51 4.02 2.86 2.777 4.18 6.609 3.87 11.449-.9 11.41-1.37 26.09-1.37 43.672zM2962.38 867.539c.32 1.801.71 3.633 1.14 5.473a73.38 73.38 0 0 0 3.32 10 35.307 35.307 0 0 0 4.8 8.238c1.8 2.23 3.83 3.98 6.13 5.309 3.91 2.23 11.53 3.089 16.21-1.129 5.79-4.961 8.95-14.34 9.38-27.891-6.48-.469-15.08-.66-25.59-.699zm61.45-18.199c2.54 2.57 3.71 6.601 3.59 12.609-.35 16.68-2.73 29.102-7.26 38.051-6.92 13.441-18.91 20.23-35.75 20.23-13.28 0-24.41-6.519-33.04-19.371-4.3-6.129-7.74-13.871-10.28-22.929-2.5-8.981-3.75-20.7-3.75-34.84 0-14.852 4.65-27.891 13.87-38.75 8.95-10.59 19.88-15.942 32.46-15.942 11.37 0 21.25 3.204 29.38 9.532 3.9 2.929 6.99 6.371 9.18 10.191 2.3 3.988 3.51 7.82 3.67 11.41.12 4.258-.94 7.539-3.17 9.649-2.11 1.992-4.8 3.05-7.81 3.05-4.02 0-9.76-2-13.98-11.41-3.24-6.992-7.93-10.23-14.85-10.23-7.93 0-13.9 3.16-18.2 9.64-3.79 5.711-6.01 13.95-6.64 24.54l49.73.82c6.17 0 10.27 1.172 12.85 3.75M3111.17 854.961a99.848 99.848 0 0 1-13.51 8.051c-4.38 2.148-8.56 4.41-12.39 6.828-3.47 2.191-6.44 4.691-8.75 7.39-1.83 2.18-2.77 5-2.77 8.59 0 3.481 1.6 6.84 4.84 10.231 1.84 1.879 5.36 2.269 8.01 2.269 5 0 8.4-1.25 10.35-3.789.9-1.172 1.49-2.422 1.76-3.793.35-1.636.51-3.59.35-5.859-.19-3.859.67-7.301 2.7-10.27 4.49-6.64 13.86-6.879 19.41-.55 2.74 3.132 3.67 7.582 2.89 12.5 0 9.921-3.71 18.132-11.01 24.382-6.72 5.778-15.08 8.668-24.93 8.668-11.36 0-20.82-3.589-28-10.699-6.92-6.64-10.39-15.082-10.39-25.082 0-11.598 5.35-21.406 15.93-29.219 4.18-3.007 8.75-5.699 13.6-8.007 4.41-2.114 8.59-4.372 12.38-6.641 3.52-2.109 6.45-4.492 8.75-7.109 1.8-2.032 2.7-5.122 2.7-9.18 0-3.942-1.33-6.992-4.26-9.652-3.05-2.731-7.07-4.059-12.31-4.059-5.27 0-9.37 1.328-12.57 4.059-3.01 2.5-4.3 5.199-3.99 8.679.39 6.91-.78 11.75-3.63 14.762-1.95 2.07-4.57 3.16-7.62 3.16-3.87 0-12.89-1.48-13.71-15.191-.7-10.66 3.12-19.649 11.33-26.641 7.69-6.801 17.38-10.238 28.75-10.238 13.04 0 23.47 3.558 31.01 10.629 7.35 6.871 11.06 15.898 11.06 26.84 0 11.64-5.39 21.359-15.98 28.941M1832.93 358.16c-3.2.942-10.31.551-24.81-.969-11.95-1.171-36.01-1.761-71.71-1.839 0 .347-.04.668-.08.976l-.43 117.774 27.19-.231c2.5 0 5.35-.082 8.63-.242h1.76c22.3 0 26.99 9.34 26.99 17.191 0 4.879-1.95 9.02-5.7 11.989-3.79 2.972-10.43 3.671-22.07 2.421-8.05-.82-20.43-1.281-36.8-1.359.04 20.578.23 50.738.66 90.578l.47 47.582c.12 11.68.2 23.399.24 35.16 8.32.469 17.89.508 28.32.149 6.05-.309 11.79-.66 17.11-1.012 5.42-.387 10.5-.707 15.31-.937l1.52-.039c5.31 0 9.77 1.449 13.17 4.296 3.9 3.243 5.93 7.582 5.93 12.582 0 5-2.22 9.45-6.29 12.692-1.87 1.68-4.25 3.008-7.07 3.906-3 .942-7.85.942-16.44-.039-7.23-.82-21.06-1.211-41.17-1.211-10.24 0-18.56.512-24.65 1.524-4.69.82-8.36.468-11.99-1.211-2.5-1.371-4.57-3.481-6.22-6.289-1.28-2.262-2.34-6.372-1.21-21.133.75-10.039 1.29-27.539 1.61-51.949 0-11.45-.04-24.141-.12-38.008-.08-13.871-.12-47.66-.12-101.41 0-53.321-1.17-102.692-3.44-146.723-.5-8.508 3.44-13.277 6.68-15.699 2.19-1.719 4.65-2.891 7.35-3.399 1.25-.269 2.61-.39 4.06-.39 1.33 0 2.73.121 4.22.347 1.33.203 7.46.782 33.59 2.461 19.88 1.289 42.5.942 67.42-1.008 6.57-.39 11.72 1.047 15.67 4.219 4.02 3.281 6.17 7.57 6.17 12.379 0 4.731-2.07 9.063-6.25 12.813-2.11 1.878-4.61 3.238-7.5 4.058M2037.85 417.109c-.15 13.282-.23 27.34-.31 42.153-.08 14.758-.12 37.968-.12 69.609 0 31.481.43 85.93 1.37 161.988 0 6.289-1.8 11.211-5.35 14.532-6.92 6.488-16.99 6.519-24.22.121-3.79-3.364-5.7-8.282-5.7-14.852.74-21.601 1.4-43.359 1.95-65.351l1.6-65.188c.55-21.449 1.17-53.672 1.95-96.762.51-23.828 1.14-46.597 1.88-68.129a819.35 819.35 0 0 1-3.71 9.571l-39.34 101.719c-7.19 18.64-14.37 37.351-21.56 56.101-7.23 18.75-13.95 36.52-20.24 53.32a7865.08 7865.08 0 0 0-16.99 45.7c-5.04 13.668-8.94 24.531-11.68 32.66-3.47 10.187-10.97 15.539-21.76 15.539-5.03 0-9.8-1.91-14.17-5.66-4.61-3.981-6.92-9.61-6.92-16.879.31-17.141.47-37.571.47-61.281V489.691c0-53.48-.78-101.921-2.3-144.031-.2-6.519 1.6-11.601 5.35-15.148 3.63-3.403 7.69-5.16 12.18-5.16 4.46 0 8.4 1.636 11.8 4.808 3.48 3.281 5.24 8.039 5.24 14.25l-2.7 291.02c7.77-21.289 16.37-43.981 25.7-67.809 7.43-18.992 20.82-52.07 39.81-98.32 18.9-46.141 35.27-89.422 48.63-128.563 1.56-4.718 4.26-8.398 8.01-10.898 8.87-5.82 18.12-5.039 26.05 2.07 2 1.84 3.64 4.07 4.89 6.68.97 2.109 1.79 6.101 1.25 20.789-.39 10.5-.75 29.961-1.06 57.73M2184.22 508.16a627.422 627.422 0 0 1-22.58 20.039c-7.54 6.41-15 12.891-22.3 19.461a131.123 131.123 0 0 0-18.95 21.051c-5.43 7.539-9.88 16.129-13.24 25.508-3.32 9.301-5 21.832-5 37.301 0 14.929 4.53 27.152 13.87 37.308 8.28 8.981 18.71 13.32 31.95 13.32 11.87 0 21.25-3.628 28.55-11.097 3.36-3.512 6.02-7.61 7.82-12.18a39.24 39.24 0 0 0 2.77-14.57c0-5.43-.98-13.711-2.93-24.653-.98-6.289.12-11.558 3.28-15.668 6.37-8.281 17.42-8.511 25.16-.39 3.59 3.789 5.66 8.211 6.17 13.172.59 5.539.55 7.578.51 8.629-.08 1.019-.04 2.031.11 3.398 1.1 26.723-5.54 48.051-19.8 63.441-12.85 13.508-29.57 20.391-49.57 20.391-23.09 0-42.58-8.09-57.89-24.07-15.39-16.051-23.2-37.34-23.2-63.242 0-24.957 6.71-47.579 19.92-67.188 6.01-8.82 12.89-16.992 20.47-24.25a488.82 488.82 0 0 1 22.85-20.633 875.987 875.987 0 0 0 22.5-19.879c24.72-22.699 37.26-48.828 37.26-77.699 0-21.558-4.61-38.16-13.63-49.41-8.91-11.051-20.55-16.41-35.62-16.41-15.16 0-26.61 4.961-35 15.16-4.18 5.16-7.5 11.641-9.93 19.262-2.42 7.769-3.67 16.207-3.67 25.187 0 10.121-.74 17.313-2.3 22.031-1.21 3.602-4.77 9.649-14.89 9.649-12.14 0-18.32-12.07-18.32-35.82 0-21.637 7.19-41.36 21.33-58.59 15.24-18.598 35.16-28.008 59.3-28.008 25.78 0 46.72 9.059 62.19 26.988 15.47 17.852 23.28 41.961 23.28 71.571 0 25.269-6.72 47.96-20 67.46a144.78 144.78 0 0 1-20.47 23.43M2347.54 356.91c-.27 8.399-.59 19.07-.98 31.961-.31 12.539-.54 26.75-.78 42.609l-.7 49.77c-.24 17.301-.43 35-.59 53.051-.11 18.078-.19 44.219-.19 78.359 0 26.211.5 47.262 1.56 62.649 6.21 1.64 14.06 2.5 23.32 2.5 25.08 0 44.96-8.789 60.82-26.829 8.4-9.531 15.39-22.621 20.74-38.832 5.39-16.367 8.17-35.937 8.17-58.199 0-22.469-1.84-42.82-5.43-60.508-10.47-51.171-31.41-90.121-62.23-115.781-14.53-12.07-29.22-19.031-43.71-20.75m16.8 351.801c-9.69 0-22.15-1.09-36.92-3.242-12.69-1.559-19.18-9.688-18.2-22.739 1.21-19.64 2.3-46.871 3.2-80.968.31-16.532.59-33.871.82-52.032l.71-54.031c.19-17.847.39-35.078.46-51.679l.2-45.309c.08-13.551.12-25.082.12-34.57v-19.762c0-4.688.82-8.828 2.42-12.309 1.48-3.281 5-7.148 13.16-7.148 29.26 0 56.68 10.078 81.53 30.039 11.91 9.609 22.96 21.328 32.77 34.879 9.77 13.519 18.24 28.871 25.27 45.59 7 16.718 12.5 35.121 16.37 54.769 3.91 19.602 5.86 41.133 5.86 63.981 0 22.929-2.54 44.179-7.54 63.199-15.9 60.59-56.37 91.332-120.23 91.332M1211.29 493.441c-10.43-51.171-31.37-90.16-62.19-115.781-1.91-1.57-3.79-2.82-5.66-4.18 1.91-1.531 1.72-4.14 1.09-7-4.02 1.961-2.07 3.211-2.3 6.098-12.31-8.828-24.65-14.219-36.84-15.668-.04.59-.04 1.289-.08 1.961-1.36 1.051-1.05 3.117-.15 4.68-.2 7.148-.47 15.629-.75 25.32-.31 12.578-.58 26.75-.82 42.609l-.66 49.77c-.23 17.301-.43 35-.59 53.09-.15 18.039-.23 44.18-.23 78.359 0 26.25.51 47.262 1.56 62.61 6.25 1.64 14.06 2.5 23.32 2.5 25.08 0 45-8.789 60.86-26.829 8.4-9.531 15.35-22.621 20.7-38.832 5.43-16.367 8.17-35.937 8.17-58.199 0-22.469-1.84-42.82-5.43-60.508m-114.65-80.632c-2.19 1.332.63 6.722 1.88 7.312 2.34-1.332-.47-6.762-1.88-7.312m19.77 295.16c.47-1.758 1.6-3.481 4.1-5.117-1.72-2.622-9.34 2.539-4.1 5.117m69.88-29.848c3.59-2.691 3.67-7.609 4.57-15.351-9.61-.661-1.88 9.218-4.57 15.351m3.55-18.781c.24 1.25 2.35.89 2.27 2.379 3.59-1.367 0-5.59-.82-6.797-2.07.629-.86 2.539 1.09 2.308-.58.969-1.17 1.95-2.54 2.11m4.22 20.738c-3.28-4.34-8.59 2.461-13.2 5.152 5.98 4.34 9.76-3.281 13.2-5.152m1.02-.738c2.54-1.371 3.75-2.93 4.37-4.61-1.01-2.39-2.54-2.109-3.75-3.21.63 2.742-2.3 4.929-.62 7.82m15.47-17.039c1.21-4.602-7.27 1.879-9.77 1.097 4.1 1.954 7.03-.308 9.77-1.097m-131.49 28.289c4.65 3.941-3.79 7.219 3.75 10.89 1.49-1.64-4.65-10.46 3.21-6.281.15-4.418-5-2.82-6.96-4.609m1.92-8.442c-.59 1.09-.67 1.872-.47 2.582-.2-.589-.31-1.14-.12-1.718-2.27-.59-2.27 4.609-.27 6.207 1.99-1.449 1.09-2.77.5-4.18.94 2.031 4.42 3.051 4.54 6.441 2.89-3.039-2.46-6.089-4.18-9.332m.66-308.867c-5.12 1.449-1.87 4.571.35 5.547 2.54-.59-.51-3.867-.35-5.547m-11.48 292.93c.15 4.687 4.25 9.488 8.04 14.301 3.4-4.614-6.32-10.903-8.04-14.301m179.76-112.07c0 22.968-2.54 44.218-7.5 63.238-2.42 9.141-5.43 17.461-8.94 25.242-3.6 2.07-7.07 3.859-10.04 2.848-1.49 3.98-1.17 5 2.34 8.48 1.6-1.84 2.85-2.898 4.06-3.789-16.56 31.32-43.24 50.11-79.72 56.25-1.21-5.98 2.5-14.691-1.25-22.461-.59 2.223-1.1 13.512.19 15.821-4.57.429-4.72 1.05-.74 2.929-1.25 1.172-2.46 2.34-3.24 1.641.12 1.129.51 2.031 1.05 2.73-7.61 1.09-15.58 1.641-23.98 1.641-9.69 0-22.15-1.09-36.92-3.242-12.69-1.559-19.14-9.688-18.16-22.739 1.21-19.679 2.27-46.949 3.2-80.929.28-16.571.59-33.91.78-52.071l.71-54.031c.23-17.847.39-35.078.47-51.679l.23-45.309c.08-13.551.12-25.082.12-34.57v-15.082c.86 2.113 2.69 2.543 3.83 4.179 1.91-1.476-1.21-6.289-3.83-5.539v-2.429c.27-.86.35-1.75.15-2.809.2-3.91.86-7.422 2.23-10.391 1.52-3.281 5-7.191 13.16-7.191 29.26 0 56.68 10.121 81.53 30.082 11.95 9.57 22.97 21.328 32.77 34.879 9.77 13.519 18.28 28.871 25.28 45.59 6.99 16.718 12.5 35.121 16.4 54.769 3.87 19.641 5.82 41.172 5.82 63.942M1326.8 335.27c.54.98 1.52.98 1.87 2.269.28 1.25-1.17 1.371-1.99 1.91.08 3.012 2.7 1.25 3.32 3.281.12-1.281 1.05-8.199-3.2-7.46m75.27 22.89c-3.24.942-10.31.551-24.84-.969-11.88-1.171-36.02-1.8-71.68-1.839-.04.347-.04.668-.08.976l-.47 117.774 27.19-.231c2.54 0 5.39-.082 8.63-.242h1.76c3.12 0 5.82.203 8.28.551.04.699.08 1.601.12 2.929 1.64-.347 2.77-1.129 3.59-2.23.59.16 1.29.242 1.84.391 1.71 3.871-.67 11.531 4.72 12.968-2.89 5.864-4.8-3.629-4.8-7.687-3.24.539-2.7-1.961-4.77.621 2.62 1.367 3.44 9.808 1.84 12.109.86 2.539 1.25 5.778 4.37 5-2.77-4.801.39-2.191.16-6.91 3.67 1.641-2.23 11.399 5.27 11.828-3.86 2.582-10.35 3.211-21.4 2.031-8.05-.82-20.39-1.25-36.8-1.359.04 20.578.27 50.738.7 90.578l.47 47.582c.12 11.68.2 23.399.2 35.16 8.32.469 17.93.508 28.32.149 6.09-.309 11.83-.66 17.15-1.012 5.39-.387 10.5-.707 15.27-.937l1.56-.039c5.31 0 9.77 1.449 13.17 4.296 3.9 3.243 5.93 7.582 5.93 12.582 0 5-2.22 9.45-6.29 12.692-1.91 1.68-4.29 3.008-7.07 3.906-3 .942-7.81.942-16.44-.039-2.62-.309-6.17-.551-10.51-.738 3.32-1.602 2.46-9.531 3.48-14.653-7.07 1.68-4.42 10.192-5.2 14.614-7.46-.282-17.07-.434-28.94-.434-10.24 0-18.56.512-24.69 1.524-4.65.82-8.32.468-11.95-1.211-2.5-1.371-4.57-3.481-6.21-6.289-1.29-2.223-2.35-6.372-1.22-21.133.75-10.039 1.29-27.539 1.61-51.918 0-11.52-.04-24.172-.12-38.039-.08-13.871-.12-47.66-.12-101.41 0-53.321-1.17-102.692-3.44-146.723-.54-8.508 3.44-13.277 6.68-15.699 2.19-1.719 4.65-2.891 7.31-3.399 1.29-.269 2.62-.39 4.06-.39 1.33 0 2.77.121 4.26.347 1.33.203 7.46.782 33.59 2.461 19.92 1.289 42.5.942 67.42-1.008 6.53-.39 11.72 1.047 15.63 4.219 4.06 3.281 6.21 7.57 6.21 12.379 0 4.731-2.11 9.063-6.25 12.813a19.357 19.357 0 0 1-7.5 4.058" transform="matrix(.13333 0 0 -.13333 0 181.333)"/><path style="fill:#fff;fill-opacity:1;fill-rule:nonzero;stroke:none" d="M1364.65 502.109c-.27.231-.47.512-.74.7-.16.121-.43.203-.59.312.08-2.812-1.37-3.43-1.95-5.23 1.75.781 2.69 2.308 3.28 4.218M1369.61 490.82c0 3.59-1.09 6.762-3.13 9.379-1.44-8.32-3.82-16.367-6.91-23.719 7.85 3.36 10.04 9.141 10.04 14.34M2993.44 360.16c2.65-1.719 5.43-2.148 7.42-2.148 3.36 0 6.76.968 10.19 2.968 3.05 1.719 5.08 4.329 6.53 7.379-.31 4.34-.67 7.621-2.15 14.262-3.09-2.742-6.45-5.551-9.53-8.48-4.88-4.922-9.61-9.762-12.46-13.981M2950.08 599.57c.23-2.5.31-5.191 1.95-6.64zM2960.04 565.469c-.08-6.25 1.13-8.867 3.71-12.809-1.29 4.41-2.5 8.672-3.71 12.809M2944.57 614.922c.2.387.55.469.86.668-.23.742-.43 1.441-.63 2.14-.54-.66-1.01-1.398-.23-2.808" transform="matrix(.13333 0 0 -.13333 0 181.333)"/><path style="fill:#fff;fill-opacity:1;fill-rule:nonzero;stroke:none" d="M2933.24 626.68c2.93 2.191 4.22 5.199 2.42 9.84 4.81.429 3.64-13-2.42-9.84m8.09-64.41c.7-1.372.51-2.188-.39-2.661.51-1.168 1.91-.629 2.97-.738.19-3.672-1.37-1.68-4.57-2.109-.32 2.379-1.41 5.226 1.99 5.508m11.48 25.621c-.86-5.821 6.88-11.051.35-14.301 1.76 5.898-9.57 13.09-.35 14.301m5.08-62.539c2.58-.864 3.24-4.922 5.12-6.872-4.46-1.8-6.29 4.719-5.12 6.872m31.91-68.512c-2.14-3.52 8.68-16.61 1.84-25.43-3.91-.859 2.07 3.942-2.54 3.512 2.03 4.219 1.33 20.16-7.42 22.109 1.13 4.61 5.62-.82 8.12-.191m8.64-33.641c-4.3 1.571-.08 5.781-3.36 9.891 7.5-.508 2.69-5.789 3.36-9.891m1.87-43.238c-4.76.699-1.4 2.23-3.28 6.059 1.56.152 2.35.23 3.91.39 2.18-3.711-2.85-2.738-.63-6.449m-12.61 43.32c-1.33 1.68-.67 6.52-3.4 5.981.97 4.136 11.83-5.633 3.4-5.981m28.78-1.832c-.78-1.097-2.46-1.679-4.72-1.84 1.25-3.16 3.4-4.609 6.79-4.379-5.62-6.992-4.92-12.808.67-23.121-.78-2.461-2.03 2.731-5.2-.55.43 12.269-3.98 22.07-4.37 34.222 3.28.27 5.58-1.172 6.83-4.332m5-25.898c3.09-3.641 2.23-5.59-.82-4.571-.82 1.75.39 3.04.82 4.571m8.75 52.379c.59-3.321-2.77-4.141-4.72-5.86-.94 3.551.47 5.629 4.72 5.86m.47 30.308c2.39-1.289 3.99-3.976 5.16-7.148-1.45.789-3.32.898-5.51.469-.23 2.461 2.89 2.82.35 6.679m74.34 12.461c-7.31-1.437-4.14 13.25-8.59 16.41 3.08 1.563 3.43-2.109 5.93-1.679-1.95-4.77 1.14-7.192 2.66-14.731M2916.52 653.52c-2.3-2.739-4.37-.86-6.72-4.141 1.72-3.359 3.79.23 5.55-3.168-4.92-6.09-5.31 4.41-8.87 1.949-.23 1.371 1.18 2.621-.58 4.18 2.26 2.148 8.75 2.39 7.65 6.57 3.17 1.09 3.6-4.262 2.97-5.39m-18.51-12.622c-1.68-1.679-3.13 2.934-4.73 3.872 1.37.109 2.66-1.372 4.1.312-3.08.387-2.93 4.527.28 6.598.5-1.719-.36-3.282-1.84-4.731 2.34-2.539 4.96 1.332 7.5 3.25 2.15-5.078-6.6-4.07-5.31-9.301m-9.57 6.051c-.59 2.231.94 4.301 3.55 6.211 3.63-2.648-2.3-4.18-3.55-6.211m-6.1-15.148c-2.46 3.75 9.81 6.597 9.65.82-3.16 1.758-6.4 1.949-9.65-.82m27.89 56.09c2.07-3.672.28-5.551 3.29-9.692-3.64-.898-8.99 9.531-3.29 9.692m23.17-49.301c-.98-.27-1.45-.391-2.42-.621.35 6.761-3.05 14.332-5.43 22.89-2.7-2.847-4.5-6.558-7.93-1.64 3.28.551 5.04 3.48 7.15 4.801-.94 4.14-1.57 8.48-1.33 13.05-1.33.86-2.93 1.211-4.61 1.371-.43 4.137-1.1 8.981-4.42 12.028 2.07.269 1.53 1.761 3.01 2.301-4.76 2.109-2.3 12.429-9.1 10.589-.7 2.262-.43 3.871-.59 5.391-2.14.629-4.25.898-6.17.898-.23 0-.43-.078-.66-.078.19-1.91-.82-3.32-3.05-4.179-.27 1.879-.43 2.847-.82 3.75-3.71-.743-7.07-2.379-10.04-5-4.33-3.832-6.52-10-6.52-18.442l.74-56.09c.12-.078.2-.16.31-.23l1.57-1.797c-.63-.16-1.21-.473-1.84-.703l1.99-150.32c0-21.789-.31-46.129-.94-72.34-.15-10.981-.39-21.449-.7-31.289-.31-9.84-.62-18.051-1.01-24.571-.47-8.199 1.21-14.019 5.15-17.769 3.95-3.641 8.13-5.469 12.46-5.469 4.07 0 8.05 1.641 11.72 4.719 1.96 1.531 3.56 3.519 4.73 5.859.94 1.922 1.8 5.121 1.56 15.903-.16 7.378-.94 33.75-2.42 79.136-1.45 45.203-2.19 103.094-2.19 172.071l-.15 19.461c4.02-13.95 8.35-29.032 13.12-45.282 5.2-17.769 10.55-35.699 15.98-53.789 5.47-18.117 10.74-35.777 15.86-53 2.54-8.437 4.92-16.449 7.22-24.07.12-.039.2-.109.32-.149-.08-.082-.16-.082-.24-.16 2.34-7.851 4.61-15.308 6.76-22.3 4.18-13.872 7.73-25.508 10.55-34.93 2.85-9.488 4.64-15.43 5.39-17.731.82-3.089 2.03-5.39 3.36-7.23.15 0 .27.043.39 0 3.71 6.293 8.47 10.391 13.16 14.383 5 3.937 10.43 7.578 14.69 13.547 1.13-2.688 2.54-1.598 3.83-2.887-1.53-1.684-3.48-3.442-5.51-5.274 2.3-1.328 2.73-5.277 3.47-9.339 5.51 16.8 11.37 35.511 17.43 55.82-.59.391-1.29.633-2.31.351-.15 5.711-1.83 6.329-2.97 12.7 3.83-.391 4.77-5.7 6.1-10.391 1.52 5.082 3.04 10.313 4.61 15.582-1.88-1.172-7.04-1.832-3.91-5.582-.51-3.91-2.93 5.352-5.55 4.492 2.27 3.989 6.96-.191 8.13 3.75.86-.511 1.44-.902 1.72-1.25 1.33 4.571 2.65 8.989 4.02 13.707 4.88 17.032 9.81 34.301 14.69 51.883 4.92 17.539 13.51 49.258 25.78 95.149l3.51 13.519v-105.59c0-1.398-.03-2.89-.03-4.25 1.21.742 2.53 1.442 3.43 2.301-.19 1.172-.5 2.422-1.4 4.059 1.33.121 2.65-2.219 3.79-4.368-1.92 4.098 6.68 5.231 5.39.149-1.8-2.418-3.25 2.66-5.08-.738 1.13-2.192 1.99-3.872 2.42-2.114 4.41-3.398-.9-3.437-3.59-4.84-1.06 2.114-1.21 3.672-1.25 5.192-.82-.738-2.31-1.051-3.71-1.559-.08-44.922-1.25-100.699-3.44-166.293 0-6.289 1.95-11.289 5.74-14.879 7.3-6.91 17.62-6.879 24.96-.629 3.87 3.36 5.74 8.321 5.51 14.77-2.31 66.129-3.52 127.699-3.63 183.281-3.21-1.761-6.02-3.672-6.8-6.871-1.84-.281-1.33 1.711-2.03 2.969-3.83-.668.43-3.789-2.42-4.809-.86 1.91-1.84 1.45-2.86.899-2.07 4.41 4.03 6.64 6.96 8.16 2.15 1.101 4.65 1.992 7.11 2.82v4.449l-.16 66.012c-2.07-1.25-4.1-2.301-5.66.43 2.07 1.719 4.1 2.859 5.66.39v1.489c-.31-.039-.58-.078-.86-.039-.15 1.211.24 1.601.82 1.761v12.93c0 31.988.28 53.32.9 63.469.35 8.441-.9 14.89-3.83 19.691-4.14 6.879-9.8 8.278-13.83 8.278-8.55 0-19.68-3.399-23.9-19.61a7255.272 7255.272 0 0 0-17.93-69.367c-17.31-65-31.6-116.883-42.81-155.473.11.039.23.039.35.082 1.87-3.832-2.35-3.793-1.76-6.761 3.94 1.41 4.69 3.32 4.65-1.95 5.04-.242 1.72 4.801 3.04 6.95 1.33-7.231-3.94-28.871-4.45-38.399-3.59.821.16 5-2.97 8.707-1.56-1.289-1.68-3.468-.43-6.519-4.68 2.152-4.14 6.992-4.68 9.761-3.87-1.441-.71-7.339-1.8-10.539-2.97.7-1.76 3.118-2.03 4.649-1.68-5.508-3.28-10.59-4.73-15.16-14.41 48.75-26.56 90.16-36.52 124.261.04-1.25.15-2.5.82-3.519-5.51 1.68-3.56 6.098-3.67 9.726.5-.199.89-.429 1.21-.668-.24.899-.47 1.719-.75 2.579-5.82.742 1.41-9.797-3.51-11.559-6.17 7.891 2.58 16.52-4.34 18.629.71 3.402-2.65 9.101 2.97 9.691-.82 2.891-1.72 5.899-2.54 8.711l-4.57 15.739c-1.68-.7-4.96.75-5.66 1.64-2.15 3.641.51 4.692-2.19 8.68-4.14.07-1.01-3.828-5.19-3.75-4.81 7.93 6.44 2.89 5 7.609 1.48-.469 2.34-2.258 4.37-1.597l-1.87 6.41c-.51 1.789-1.02 3.437-1.53 5.187-.86-1.789 1.29-5.23 2.23-7.969-6.09.551-2.07 8.52-8.01 10-1.01 2.11 2.46 1.801 4.53 2.231-2.19 7.5-4.29 14.73-6.29 21.488l-7.46 25.27c-.78 2.543-1.4 4.73-2.07 6.91 2.42-10.469 3.95-20.309 6.64-31.988.47-1.172-1.09-1.332-1.91-1.801M2824.38 418.012c4.14-.782 2.07-1.602 2.81-4.532 2.61.5 1.64 3.239 2.46 4.84 4.49-1.761-1.6-4.34 1.25-8.16-3.01 1.602-8.48 4.84-6.52 7.852m4.64 6.09c1.37-3.243 2.27-6.25-2.03-5.942-.82 2.93-1.68 5.899 2.03 5.942m3.6 156.988c2.03 1.961 4.22 1.879 6.48-.11-3.01-1.601-3.12-1.718-4.53-4.769l-2.62 2.461c1.92.078 2.31.937.67 2.418m-136.88-177.891c-4.33.86-4.29 13.789-1.29 4.461.78-2.5 3.4-2 1.29-4.461m-16.48 26.961c1.83 2.77 4.41 3.629 7.73 2.539-2.69-.551-4.02-4.539-7.73-2.539m5.08 5.5c-7 6.57-6.61 19.539-6.68 25.59 5.7-4.219 1.48-16.09 6.68-25.59m-13.21-11.789c-.11 2.379 3.25 3.078 3.79 8.359 1.99-1.64 1.56-2.742-.31-3.679-.43-1.012.94-1.403 1.72-2.031-.59-3.79-4.26.242-5.2-2.649m4.14 150.82c-1.91 1.598 2.54 3.707-1.52 3.829 1.21 3.75 8.63-4.258 1.52-3.829m30.86-182.421c-3.67 10.351-5.86 35.851-6.64 75.89-.11 7.66-.23 15.59-.31 23.75-.08 8.211-.12 23.442-.12 45.82 0 7.782.04 16.02.12 24.461-.66.93-1.33 1.911-1.91 2.891-6.84 12.617-13.6 29.758-21.14 37.578 6.88 4.02 9.53-14.93 16.72-19.422-.35-2.847 1.49-6.328.12-9.019 2.19-2.5 4.26-5.16 6.25-7.93.16 14.652.39 30.043.74 46.293.31 13.75.66 26.797 1.06 39.137.39 12.301.7 22.5 1.01 30.551.39 9.839-1.6 16.281-6.05 19.761-7.93 6.129-18.87 6.09-26.45-.082-2.97-2.379-6.29-6.988-5.51-15.23 1.92-20.938 3.28-44.731 4.18-70.938 2.39.699 4.53-.82 6.6-3.011 1.25-2.93 3.01-5.93-.15-8.04-.98 1.559-1.95 3.04-3.2 2.379-1.06 1.993 0 3.59 2.38 4.922-1.84 1.68-4.06-.152-5.63 3.707.71-21.328 1.1-44.218 1.1-68.789l-.47-108.078c0-17.461 1.68-33.562 4.92-47.781 10.51-46.988 37.54-70.781 80.31-70.781 25.98 0 46.92 11.101 62.27 32.929 6.72 9.571 11.91 20.672 15.51 32.973 3.55 12.109 6.21 30.121 7.89 53.559 1.32 17.96 2.22 45.312 2.69 81.281-1.17 1.371-1.48 4.031-2.11 5.937l2.19 1.172c.12 8.442.2 17.192.23 26.531.12 14.957.16 30.11.24 45.188-.55.121-1.09.16-1.68.711.27-4.5-9.81-5.629-5.16-10.59-3.16-2.379-5.93-1.129-6.99-5.59-5.31.551-6.64 2.891-10.7.981-.12-1.442 3.32-2.582 2.81-5.743-1.37-.078-2.7-.898-3.95-2.378-.42 1.949-1.13 7.218-4.25 2.421.5 4.61 4.1 7.5 8.36 10.579.7-7.688 5.23 4.339 8.32-1.75 1.01 2.421-1.1 4.921-1.21 7.378 5.15 5 9.92 8.942 14.49 12.383.04 4.219.08 8.399.08 12.66.07 21.789.43 44.489 1.01 67.457.24 6.524-1.8 11.563-6.01 14.883-7.66 6.02-18.09 6.02-25.39-.121-3.99-3.32-5.9-8.281-5.71-14.801 1.21-35.078 2.46-74.687 3.67-118.789.32-15.16.51-28.789.59-40.98.08-12.141.12-26.602.12-43.281 0-16.559-.86-38.829-2.5-66.008-1.76-21.371-7.85-38.09-18.09-49.77-9.84-11.09-21.91-16.48-36.95-16.48-14.53 0-26.1 5.148-35.31 15.777-4.61 5.313-8.79 13.203-12.39 23.442M1514.84 495.27c2.66-3.079 2.74-7.11 4.26-13.282-1.21-1.828-6.56 10-4.26 13.282m-59.1-106.641c-.39-4.68-2.85-5.391-4.18-8.277-3.71 1.558-.54 5.777.67 8.91zm205.51 230.242c0 31.949.31 53.277.94 63.469.11 3.25-.04 6.101-.39 8.75-.32-.231-.59-.539-.47-1.168-3.01 1.168-1.68 4.566-.67 6.598-.62 2.031-1.32 3.91-2.3 5.55-4.18 6.801-9.81 8.239-13.83 8.239-8.59 0-19.69-3.399-23.94-19.649a6511.176 6511.176 0 0 0-17.89-69.328c-26.29-98.602-45.63-167.23-57.66-204.613-19.45 66.011-34.88 118.633-46.29 157.812l-10.12 34.731c-3.2 11.008-6.25 21.328-9.1 30.937l-7.46 25.27a2290.17 2290.17 0 0 0-5.16 17.652c-1.32 4.649-2.14 7.43-2.46 8.289-4.68 15.07-14.29 18.238-21.52 18.238-5.55 0-10.43-1.878-14.57-5.507-4.34-3.832-6.52-10-6.52-18.442l2.73-209.14c0-21.868-.31-46.168-.9-72.34-.15-10.981-.39-21.449-.7-31.289-.31-9.84-.67-18.008-1.02-24.571-.5-8.238 1.17-14.019 5.16-17.769 3.94-3.641 8.12-5.469 12.46-5.469 4.06 0 8.05 1.641 11.68 4.719 1.99 1.531 3.55 3.519 4.77 5.859.93 1.879 1.79 5.121 1.56 15.942-.16 7.339-.98 33.711-2.42 79.097-1.45 45.082-2.19 102.934-2.19 172.071l-.16 19.421c3.99-13.91 8.36-28.992 13.13-45.199 5.19-17.812 10.54-35.742 15.97-53.871 5.43-18.078 10.75-35.699 15.86-52.961 5.16-17.23 9.81-32.82 14.03-46.679l10.58-34.969c2.85-9.41 4.65-15.391 5.35-17.692 3.09-11.168 10.39-12.847 14.5-12.847 3.32 0 6.75.968 10.19 2.968 3.83 2.18 6.41 5.469 7.66 9.641 1.17 3.52 2.38 7.348 3.55 11.02-4.25 2.66-5.62 14.879-7.73 18.98 3.71-3.391 6.17-9.922 8.51-16.48 4.14 12.769 8.4 26.519 12.82 41.168-2.11 7.929-2.74 19.14-5.43 23.711 6.99-1.75 6.6-10.86 6.75-19.329 3.21 10.778 6.49 21.868 9.85 33.547 4.92 17.032 9.84 34.301 14.72 51.883 4.93 17.539 13.52 49.258 25.79 95.149l3.51 13.562V518.16c0-45.738-1.17-103.711-3.47-172.379 0-6.332 1.91-11.371 5.7-14.922 7.34-6.91 17.65-6.879 25-.629 3.87 3.321 5.7 8.29 5.51 14.809-2.43 68.981-3.68 133.199-3.68 190.859z" transform="matrix(.13333 0 0 -.13333 0 181.333)"/><path style="fill:#fff;fill-opacity:1;fill-rule:nonzero;stroke:none" d="M1661.41 693.91c-.12.469-.28.86-.39 1.289-.16-.039-.32-.121-.51-.078.27-.43.54-.859.9-1.211M2526.99 448.359c-.51-1.679.16-2.187 2.07-1.019 1.21-2.141.55-4.02-2.03-5.66-.58 2.929-.66 3.05-3.12 4.84zm47.39 246.762c-1.1-2.582 1.44-5.281-.71-7.82-2.3 1.801-3.2 3.519-3.51 5.277 1.36 2.192 2.85 1.684 4.22 2.543m12.3-16.019c-6.64-3.282-9.06 4.878-12.11 7.308 3.95 3.711 8.05-3.91 12.11-7.308m-48.59-248.903c1.75-2.578.15-4.578 2.73-7.347-3.24-1.602-7.77 5.859-2.73 7.347m4.92-96.57c-2.58-.43-3.28 4.891-2.54 6.062 2.58.43 3.28-4.921 2.54-6.062m21.91.512c.63-.942.43-1.68-.35-2.192.39-.859 1.64-.148 2.62-.039.08-2.93-1.29-1.64-4.1-2.609-.24 1.871-1.21 3.98 1.83 4.84m43.44-4.34c-5.2-1.129-2.97 1.84-6.84 3.828 3.75 1.41 5.39-.969 6.84-3.828m-93.48 350.668c.78-10.039 1.33-27.539 1.6-51.918 0-11.52-.03-24.172-.11-38.039-.08-12.543-.08-41.563-.08-86.762.19-.16.47-.16.66-.352-.19-.238-.47-.308-.66-.468v-11.371c1.76-.227 3.12-1.911 5.78.98.12-2.027 3.2-4.258-.04-5.98-1.76 1.492-3.01 2.89-5.74 4.461v-1.918c0-40.512-.7-78.75-2.03-114.063 1.44 2.852 2.58 5.473 2.73 7.461 3.91-4.34.78-9.379-3.04-14.379-.36-8.711-.67-17.383-1.1-25.742-.55-8.508 3.4-13.277 6.68-15.699 2.19-1.719 4.65-2.891 7.31-3.399 1.25-.269 2.61-.39 4.06-.39 1.33 0 2.73.121 4.26.347 1.29.203 7.42.782 33.55 2.461 3.87.242 7.89.391 11.95.512.59 3.199 1.37 5.859-1.91 6.059.7 2.929-2.27 6.949 2.89 8.511-.27-6.871 1.45-8.051 5.35-12.691-2.58.23-3.4-.551-3.59-1.762 16.13.391 33.75-.156 52.73-1.637 6.6-.39 11.76 1.047 15.67 4.219 4.06 3.281 6.21 7.57 6.21 12.379 0 4.762-2.11 9.063-6.25 12.813-2.11 1.878-4.61 3.238-7.5 4.058-3.24.942-10.31.551-24.85-.969-8.43-.82-23.08-1.371-43.51-1.64.74-3.789 4.72-6.41-.24-9.813 1.37 4.102-4.18 7.231-2.77 9.774-7.66-.082-16.01-.121-25.19-.16 0 .347-.04.668-.04.976l-.28 68.121c-.58 0-1.21-.07-1.83-.187-.32 3.398-.82 7.297-3.71 9.097 1.83.7 1.36 1.801 2.69 2.582-4.06.739-1.99 9.84-8.12 6.641-1.29 3.199.66 5.43-3.21 7.188 2.03 4.492 4.69 5.23 4.07 9.179-1.37.352-3.44-2.469-6.25-1.449.35 1.25-.08 2.539-1.06 3.949 1.95 0 7.03-.429 3.56 3.281 4.06-1.371 5.82-5 7.46-9.339-7.46.859 2.57-5.352-4.1-6.911 1.99-1.332 4.96.04 7.34-.32a150 150 0 0 0 3.08-6.519l-.11 32.461 27.19-.231c2.53 0 5.35-.082 8.63-.242h1.76c22.34 0 27.03 9.34 27.03 17.191 0 4.879-2 9.02-5.71 11.989-3.79 2.972-10.47 3.671-22.11 2.421-7.57-.781-19.1-1.21-34.1-1.32.28-.199.47-.32.74-.551-5.23-6.25-4.68-8.16-7.85-16.64-3.55 1.25-5.7-2.617-7.5-7.578-.35 8.05 9.22 18.949 6.49 25.121 2.5 1.519 3.86 1.867 5.43 1.289.04 20.5.27 50.109.7 88.898l.47 47.582c.12 11.68.19 23.399.19 35.16 8.33.469 17.9.508 28.33.149 6.09-.309 11.79-.66 17.14-1.012a657.2 657.2 0 0 1 15.28-.937l1.56-.039c1.41 0 2.58.347 3.91.589-2.11 4.571-4.18 8.789-6.29 12.071-1.53 3.508 2.11 5.738 2.22 8.867 3.48 1.402 4.69-7.27 3.36-9.027 2.42-3.551 4.26-7.071 5.78-10.512 1.49.672 2.97 1.289 4.14 2.308 3.91 3.204 5.98 7.582 5.98 12.582 0 5-2.26 9.45-6.29 12.692-1.91 1.68-4.29 3.008-7.07 3.906-3.01.942-7.85.973-16.48-.039-6.57-.738-18.83-1.168-36.25-1.211 2.22-1.25 5.35-3.789 6.87-3.598-4.37-1.25-6.87 1.489-9.45 2.739-.04.39.04.621.12.859h-2.46c-10.24 0-18.52.512-24.65 1.524-4.69.82-8.36.468-11.96-1.211-2.5-1.371-4.61-3.481-6.21-6.289-1.29-2.262-2.34-6.372-1.25-21.133" transform="matrix(.13333 0 0 -.13333 0 181.333)"/><path style="fill:#dd161d;fill-opacity:1;fill-rule:nonzero;stroke:none" d="M958.871 1221.91c1.598-.19 4.719 2.62 5.188 4.54 3.441 14.02 6.371 28.12 9.613 42.93-5.121-7.54-10.352-13.56-13.633-20.55-3.238-6.84-4.879-14.57-6.41-22.07-.27-1.33 3.211-4.57 5.242-4.85M1100 1189.96c13.83 6.09 16.56 17.19 9.45 30.66-4.65-7.92-9.61-16.13-14.29-24.53-1.06-1.87-1.29-4.21-1.88-6.32 2.27.03 4.84-.63 6.72.19M1332.42 1003.36c-.47-2.03 2.81-6.45 5.12-7.071 2.11-.551 6.95 2.262 7.38 4.301.67 2.85-1.6 6.4-3.59 12.69-4.61-4.84-8.28-7.03-8.91-9.92M1221.09 1340.16c1.92-1.02 5.24.66 10.24 1.52-3.44 5.08-4.96 8.87-7.74 10.7-1.01.71-5.07-3.12-7.73-4.88 1.72-2.54 2.89-6.02 5.23-7.34M378.441 714.73c-22.312 8.86-45.472 10.149-67.269 2.34-38.942-13.949-70.121-.55-99.453 23.239-4.957 4.031-9.649 8.363-14.879 12.929 9.332-38.039 39.101-72.457 84.719-57.648 6.171 1.988 12.703 3.039 18.711 5.39 25.121 9.801 50.82 16.129 78.171 13.75M457.73 1038.01c9.219-24.49 24.5-44.612 49.969-60.471-4.109 5.231-6.449 7.621-8.09 10.43-9.41 16.011-19.179 31.831-27.73 48.321-5.938 11.48-9.77 24.06-15.117 35.9-11.172 24.84-31.172 36.13-57.813 34.53-12.738-.78-25.277-4.22-39.929-6.8 20.628-6.4 38.992-10.86 56.371-17.81 20.269-8.13 34.41-23.05 42.339-44.1M49.219 1028.71c-15.7-.23-31.41 1.29-42.34 1.8 31.71-24.42 53.742-29.14 75.89-13.17-8.75 11.49-20.738 11.57-33.55 11.37M536.719 1280.39c2.812-1.64 8.082.82 12.261 1.49-1.359 4.1-2.73 8.2-4.8 14.29-6.059-1.91-9.961-3.12-13.871-4.33 2.031-3.99 3.171-9.57 6.41-11.45M93.121 1078.98c-3.121 1.41-8.281-1.56-12.531-2.61 1.558-3.67 3.039-7.39 5.351-12.93 5.578 1.83 9.328 3.04 13.078 4.29-1.91 3.91-2.847 9.85-5.898 11.25M695.27 1191.02c-8.508 4.06-17.032 8.12-25.54 12.18-.32-.58-.628-1.21-.941-1.79l25.59-12.19c.312.58.582 1.21.891 1.8M754.488 987.422c22.742-10.82 44.102-21.481 60.864-37.422l18.949 25c-23.25 15.699-47.539 27.34-79.813 12.422M1300.74 1012.66c-1.64-1.76-3.2-3.56-4.8-5.36l26.44-4.18c4.46 7.66 9.22 15.28 14.14 23.44-15 2.93-26.17-3.67-35.78-13.9M2029.49 231.41c-21.76-2-44.06 4.879-48.01 15.469-2.1 5.742-1.48 11.012 1.37 15.891h-62.73c-1.17-14.18-3.79-28-7.62-41.321 19.65-18.789 42.46-25.668 75-22.859 35.62 3.012 59.41 16.68 61.91 35.672-6.68-.981-13.2-2.231-19.92-2.852M2333.2 262.77c2.66-2.379 5.35-4.758 8.17-7.11 12.03-9.961 27.26-17.93 53.4-17.961-5.67 8.672-11.96 16.832-16.65 25.071zM2308.75 262.77h-59.22c1.02-.54 2.03-1.051 3.09-1.559 43.71-21.133 53.04-45.859 37.07-74.801-1.41 2.18-2.5 3.75-3.36 5.352-.94 1.679-1.49 3.398-2.42 5.039-7.11 12.769-21.49 22.418-47.78 26.789-29.25 4.93-56.25-1.32-66.56-15.66-5.86-8.129-10.12-16.52-18.24-24.77-.04 11.141-2.62 22.391.47 33.289 3.71 13.082 10.62 26.09 19.18 38.59 1.83 2.66 2.97 5.191 3.82 7.731h-53.67c.32-1.872.55-3.75.59-5.661.08-2.89-.27-5.82-1.41-8.629-6.83-17.269-13.55-34.57-21.05-51.8-11.88-27.231-22.23-54.571-13.17-82.5 12.11-37.38 50.59-67.97 103.56-94.61 10.7-5.39 22.34-10.308 33.55-15.468-.93 4.136-4.1 7.187-7.58 10.117-51.71 43.402-58.82 89.531-33.08 137.301 4.53 8.441 13.28 16.718 23.63 23.832 11.8 8.128 32.15 8.707 49.06 3.398 13.32-4.18 16.41-11.328 7.97-20.859-4.33-4.879-10.15-9.45-16.6-15.352 5.43 1.25 8.56 1.84 11.45 2.66 54.14 15.031 83.83 42.531 72.97 73.821-5.12 14.769-13.6 29.261-22.27 43.75M1682.03 1027.58c-.82-1.45-1.76-2.93-2.73-4.34 1.6-.12 2.15 1.96 2.73 4.34" transform="matrix(.13333 0 0 -.13333 0 181.333)"/><path style="fill:#dd161d;fill-opacity:1;fill-rule:nonzero;stroke:none" d="M1693.36 1006.48c1.25 3.48 1.91 1.02 5 .16-.63-2.34-.74-5.39-3.98-4.3-.12 1.53.39 2.23 1.4 2.31 0 1.25-1.48 1.33-2.42 1.83m.39 36.33c-2.03 1.8-1.05 5.78-1.99 8.32 4.8-.08 3.9-6.83 1.99-8.32m-19.18-77.888c-1.21 1.098-1.21 3.238-3.63 3.316-.08 3.641 4.22 8.832.27 11.723 1.33 3.398 5.7-1.012 6.13-2.539.55-4.223-2.3-4.141-1.44-8.832 3.79-1.711 2.46 3.09 6.25 1.371 1.33-9.18-7.03-.121-7.58-5.039m-6.56-13.121c.86 1.168 2.89.859 2.61 3.429-2.42-2.031-5.46 1.84-4.84 6.098 1.64-1.129 2.23-3.168 2.34-5.629 3.56-.469 2.43 5 2.74 8.641 5.35-2.891-1.48-8.641 3.4-12.352.12-2.808-4.42.203-6.25-.187m-5-1.723c-2.15 1.563-2.62 4.531-2.27 8.242 4.49.43 1.6-5.429 2.27-8.242m16.01 46.563c-3.9-4.762 3.68-15.821-5.27-13.282 3.05 4.961-1.99 12.852 5.27 13.282m-167.03-8.789c2.85 5.507-5.62 4.218-.62 10.937 1.87-.699 0-11.059 4.88-3.711 1.29-3.598-3.2-4.808-4.26-7.226m1.25-.622c3.13-.351.98-3.679 2.31-5.039-1.68-1.601-3.44 2.731-2.31 5.039m-48.98 53.28c-.47 1.4-3.05 9.02 1.36 8.79-.27-1.14-1.24-1.29-1.28-2.82 0-1.44 1.48-1.32 2.42-1.79.62-3.4-2.38-1.84-2.5-4.18m-60.28 49.57c3.91 2.73 5.47 1.83 3.95-.9-1.76-.66-2.7.47-3.95.9m350.67-70.94c-11.95-8.79-23.13-15.39-32.19-24.101-2.54-2.5-4.96-5.16-7.3-7.93 2.03-1.757.54-7.699-.51-8.48-1.92.98-1.6 4.57-.82 6.883-5.67-6.883-11.13-14.461-17.58-22.422 36.45 82.65 6.6 123-18.16 148.82 3.08-16.52 6.95-33.82 9.41-51.29 1.37-9.72.51-19.25-3.12-28.08.42.27.85.47 1.44.43 2.54-9.69-8.87-14.14-3.36-18.83-2.03-2.81-1.13-9.49-6.64-7.69 2.77 6.21 2.58 9.17 1.6 14.33-7.38-9.06-17.19-11.44-28.51-8.94-11.45 2.5-16.49 10.7-18.05 21.36-.74 4.89-1.25 10.2-.2 14.89 3.44 15.31 7.39 30.46 11.61 45.58 3.43 12.23 4.49 24.14-4.38 34.49-7.07 8.25-16.56 11.06-27.15 8.99-15.43-3.09-21.76-16.8-15.58-28.28 7.38 1.05 16.64 5.08 19.72 2.26 5.32-4.8 9.38-13.98 9.07-21.09-.36-8.67-4.34-18.16-9.42-25.43-6.91-9.88-17.23-16.49-30.47-13.79-12.97 2.66-21.05 11.91-23.59 23.87-2.23 10.43-2.97 22.22-.47 32.46 6.13 25.08 23.28 42.19 45.82 53.79 8.32 4.29 17.3 7.42 27.07 11.52-17.85 4.3-34.88 5.31-50.66-1.21-15.47-6.37-29.77-15.63-44.07-23.32 4.89 25.12 4.11 51.25-15.11 72.97-17.58 19.96-38.48 35.27-66.64 41.05 24.21-44.25 26.05-72.5 8.9-113.55-11.09-26.52-25.78-50.82-43.01-73.63 3.13-4.26 6.22-8.29 9.5-10 1.72-1.76-.82-5-.43-7.27-2.54-2.58-4.77 2.97-3.99 4.8-3.67 2.27-6.09 5.2-8.16 8.29-.27-.39-.55-.79-.86-1.14-1.6-2.11-3.59-3.86-6.45-6.87-1.4 7.5-2.14 14.76-2.34 21.91-.86.78-1.72 1.56-2.73 2.27 1.99.74 2.14 1.64 2.61 2.5.12 15.54 2.97 30.43 8.67 45.27-25.85-16.72-47.92-36.6-53.35-68.48-3.09-18.2-2.62-36.99-4.57-55.43-.47-4.37-1.02-8.78-1.72-13.159l162.73-25.699c3.2 3.316 5.47 6.91 6.8 10.816.94 2.692 1.44 5.543 1.52 8.512.04 1.488-.04 3.012-.19 4.57-.16 1.57-.39 3.168-.75 4.77-2.46 11.17-5.62 22.19-8.08 33.36-.94 4.26-.82 8.75.47 13.44 4.84-9.03 8.9-18.56 14.64-26.92 6.61-9.65 14.03-18.98 22.31-27.22 9.3-9.18 16.21-19.219 20.62-30.391l82.74-13.051c28.63-4.527 55.35-14.058 79.49-27.5-3.28 7.731-5.12 16.293-4.84 25.512.19 6.051.51 12.301 2.11 18.039 4.84 16.922 10.39 33.602 16.6 53.441M564.41 436.879c-2.422-3.758-3 1.051-4.488 3.633 3.867 1.828 5.668-.512 9.687 1.679.59-2.621-8.398-4.261-5.199-5.312m-6.289-1.918c-4.172 2.187-5.93-.43-12.101-1.129-1.918 6.758 10.742 2.578 12.89 6.367 1.641-2.898-1.41-2.929-.789-5.238m-149.25-98.871c-3.519 1.449-.941 6.801 2.258 6.488l.59-3.558c-2.231.039-3.36-.86-2.848-2.93m208.008 155.898c-.899 0-1.801-.078-2.699-.109-29.059-.668-55.66 11.172-83.789 24.601 10.121-41.011 42.339-49.14 74.218-58-55.39.93-111.718 6.602-150.39-46.14 20.269 4.461 39.41 3.129 59.453-7.93-9.801-1.051-18.082-.5-25.274-3-14.296-4.961-29.418-9.57-41.679-17.969-30.938-21.14-54.02-22.031-84.571.27-3.75 2.738-7.418 5.668-11.168 8.437-.39-.546-.589-1.289-.32-2.418h-.699c18.519-31.289 43.238-55.511 81.449-60.281 13.86-1.719 29.02 3.871 43.16 7.699 10.629 2.891 20.309 8.981 30.86 12.301 14.73 4.692 22.461.321 27.34-14.179 1.332-3.942 2.308-8.122 2.781-12.258 1.75-16.063-5.321-23.211-21.492-20.633-9.329 1.531-18.36 4.922-27.297 7.391 10.859-28.598 47.027-60.75 75.386-58.25 14.332 1.25 28.75 1.761 43.204 1.921a215.01 215.01 0 0 0-1.68 44.289zM346.68 395.23c.429-.742.898-1.402 1.289-2.14.429.109.859.23 1.25.308-.86.622-1.641 1.293-2.539 1.832M1190.04 1221.17c3.32.67 1.48 2.5 3.67 3.4-1.37.66-2.62 1.56-4.76.86-.36-.78-.67-1.56-1.02-2.34.51-.98.94-2.07 2.11-1.92M1143.36 1031.41l.39-.08c-.12.04-.23.08-.39.08M1205.12 1253.44c.31.39.58.78.82 1.21-.32-.39-.55-.82-.82-1.21" transform="matrix(.13333 0 0 -.13333 0 181.333)"/><path style="fill:#dd161d;fill-opacity:1;fill-rule:nonzero;stroke:none" d="M1227.85 1182.34c-3.51-.82-1.83.59-2.69 2.5-2.15-1.21-1.1-3-1.68-4.53-3.87-.11 1.01 3.91-1.76 5.82 2.66-.19 7.54-.78 6.13-3.79m-3.4-6.29c-1.4 2.07-2.38 4.07 1.21 5.28.9-1.95 1.88-3.99-1.21-5.28m-55.31-148.47c-2.5-.86-4.06 4.3-3.52 5.54 2.47.83 4.07-4.25 3.52-5.54m104.45 131.29c1.84-6.76 4.22-13.52 5.51-20.47 1.68-9.34.67-18.09-9.69-22.38-10.46-4.38-21.71-1.88-27.5 7.69-3.98 6.52-7.34 14.34-7.96 21.84-4.15 50.54 1.44 99.33 30.85 142.61 9.73 14.3 20.67 27.78 32.27 43.29-28.36-14.46-51.95-32.04-72.3-53.83-4.3-4.61-8.29-9.34-12.07-14.14.15.07.19.15.42.19 2.54-4.22-6.56-5.47-5-9.45 1.49-3.63 13.01-9.1 4.22-12.54.75 1.72.39 2.54-1.44 3.24-1.64-.66-2.03-4.84-3.32-1.33-1.37-1.36-.47-3.28-.47-4.96 1.6 1.02 6.56-.11 1.44-3.24-6.75 3.44 1.68 12.54-5.85 14.38-2.7-4.03-5.24-8.13-7.58-12.35.5-.66.97-1.33 1.64-1.99-.86.16-2.31.08-3.01-.47-.04-.12-.12-.23-.2-.39-.07-.16-.19-.27-.15-.47-.04 0-.04.04-.08.04-.59-1.13-1.25-2.23-1.84-3.32 2.66-2.46 4.5-5.43 3.75-9.41-1.99.89-6.09-.16-8.12-2.43-.51-.07-.66.12-.82.32-6.09-14.73-10.2-30.39-11.64-47.19-2.23-26.64-1.84-53.48-3.13-80.23-.9-17.66-1.99-35.4-3.94-52.97-2.03 1.29-4.06 2.54-6.1 3.82-.97.08-1.6.55-1.91 1.22-10.86 6.91-21.72 13.82-32.58 20.58-.82-2.38-1.79-4.73-2.93-7.03 1.56-.74 2.35-3.16 1.8-4.53-1.37-.12-2.23.98-3.13 2.07-3.55-6.6-8.28-12.77-14.33-18.13l11.87-1.87c-.47 1.6-.43 3.71-1.64 4.76 4.1.4 3.95-2.5 4.1-5.15l1.76-.27c-.54 2.46-2.69 5.66-.15 7.61 2.85-1.99 2.96-5.23 2.93-8.04l14.21-2.23c.04 1.48 1.41 1.05 3.64 2.26.31-.97.74-1.99.7-2.96l15.55-2.47c-.12 3.95.11 8.01-.67 11.45 2.27-1.13 2.7-6.37 2.93-11.8l34.73-5.47c.47 4.03.66 8.25.39 12.82-1.45 24.02.74 48.28 1.99 72.42.28 5.43 3.09 10.74 6.92 15.86.58-8.28 1.29-16.6 1.64-24.92.7-15.39 5.5-28.56 21.6-33.48 6.09-1.88 11.95-2.31 17.42-1.48 9.14 1.4 17.3 6.32 24.14 14.14 4.3 4.84 7.5 10.62 11.37 17.18 1.29 2.19 2.65 4.5 4.18 6.84-1.76-29.96-3.91-56.99-29.42-75.2-5.15-3.67-10.19-7.53-15.35-11.29l38.87-6.13c13.2 22.85 23.87 46.76 26.87 73.75 3.25 29.3-12.81 63.4-35.39 75.63M720.121 864.262c-1.723 3.859.231 5.539-2.351 9.957 3.71.551 8.011-10.348 2.351-9.957m-15.672 63.547c1.02 3.011 3.789.203 5.43 1.171 1.172-1.992-3.43-2.73-5.43-1.171m-4.679-9.957c-3.52.039-3.129 6.988-.508 9.378-1.684-.98-3.242-2.5-6.492 1.29 1.058 1.679 10.781-2.43 4.652 3.941 3.398.469 3.988-3.16 5.629-5.039 0 0 .039 0 .039-.043.148-.188.308-.469.5-.617-.27.226-.5.308-.738.429-2.93-1.882-4.411-4.691-3.082-9.339m-6.801 22.378c-1.68-2.691-5.778.04-6.449 4.34 1.921-.621 3.089-2.379 3.949-4.691 3.511.672.742 5.512-.039 9.07 5.98-1.14 1.211-8.679 6.992-10.711.976-2.687-4.262-1.168-5.863-2.109.429 1.371 2.461 1.68 1.41 4.101m-10.348-.109c4.18 1.789 3.16-4.691 4.68-7.152-2.531.82-3.903 3.511-4.68 7.152m-23.992-15.351c4.301-2.579 1.492-8.911 2.93-12.93-4.957 3-.508 8.238-2.93 12.93m58.359-95.391c1.332-.938 3.832 1.133 6.532-.828l6.949 9.219c-.27-.071-.469-.11-.778-.192.821 1.801.149 2.731-2.031 2.152-.98 3.122.039 5.11 3.039 5.93.16-3 .281-3.781 1.492-5.621l50.821 67.191c-29.383 16.129-58.051 33.43-86.024 52.11-1.289.89-2.609 1.68-3.937 2.539.5-2.578-1.02-3.789.898-7.348 4.141-.472 1.403 3.707 5.539 3.199 4.063-8.351-6.679-2.218-5.699-7.07-1.488.629-2.109 2.699-4.449 2-1.219 3.469 1.32 9.719-3.32 11.25.031 1.012.539 1.481 1.21 1.68-22.429 13.551-46.25 22.379-74.109 16.988-16.359-3.199-30.422-9.258-43.199-21.25 24.18 1.992 47.269 5.703 63.867-18.437-6.211 1.558-10.16 2.621-14.141 3.519-25.468 5.93-51.128 6.988-75.699-2.621-32.308-12.617-59.027-4.918-82.5 18.871a213.968 213.968 0 0 1-4.109 3.981c-.192.199-.738.039-1.09.039 10.551-35.739 56.328-75.7 120.66-77.34-4.211-7.11-8.39-14.141-12.531-21.18.742-.859 1.441-1.711 2.18-2.57 24.101 8.98 48.91 13.43 73.953 7.808 23.547-5.238 46.636-12.699 68.898-21.597-7.219 25.148-6.832 40.5-9.68 62.179-.351 1.219 1.211 1.219 2.071 1.61.969.148 1.48.23 2.461.39-1.563-10.628 6.09-24.179 3.707-39.691 1.293-.98 2.812-1.449 4.453-1.801.039-4.136.238-9.019 3.238-12.379-2.07-.078-1.64-1.597-3.16-1.988 4.488-2.582 1.051-12.582 8.012-11.449.898-4.41-1.563-6.25 2.297-10.043-2.93-4.527-5.821-4.25-5.821-9.25M719.219 822.891l1.211 1.64c-.942.078-1.52-.312-1.211-1.64M303.789 792.27c7.93 2.769 15.902 5.46 23.832 8.242-1.141.347-2.23.699-3.359 1.25-1.453.187-1.453-1.211-1.371-2.66-2.231 1.949-7.539-2.071-8.629 2.109-2.153-2.731-5.121-2.66-8.133-1.563-1.207-1.058-2.418-2.109-3.59-3.277.43-1.371.82-2.742 1.25-4.101" transform="matrix(.13333 0 0 -.13333 0 181.333)"/><path style="fill:#dd161d;fill-opacity:1;fill-rule:nonzero;stroke:none" d="M618.48 566.801c-2.46-1.25-8.05.781-8.171-3.481-2.93.039-1.989 5.16-1.129 6.02 2.621 1.75 3.91-.711 6.679 1.558-.629 3.75-3.238 1.09-3.871 4.84 5.633 3.992 3.403-5.937 7.032-4.797-.149-1.41-1.641-2.07-.54-4.14m-23.359-1.68c5.109-1.961 9.258 7.5 11.68-.711-4.813.942-8.051-5.191-11.68.711M584.57 598.32c-.308 2.621 5.039 3.051 6.168 2.27.282-2.621-5.078-3.051-6.168-2.27m-2.73-21.441c-.86-.359-.238-1.649-.121-2.617-2.969.039-1.598 1.359-2.457 4.218 1.91.149 4.019 1.008 4.758-2.07-.969-.551-1.68-.359-2.18.469m-32.86 12.18c-1.679 5.043 2.231 4.031 4.071 2.742.929-2.391-2.973-1.719-4.071-2.742m-22.929-5.938c2.699 1.449 4.027-.539 6.097-.582-.078-2.539-5.668-2.457-6.097.582m-3.903-3.742c-.668.891-1.328 1.793-2.418 1.75.969 1.961 3.79 1.601 5.43 1.68-.16-1.719-1.332-2.727-3.012-3.43M452.809 688.98c2.152.469 4.3.942 4.89-2.339-2.308-.903-4.461-1.442-4.89 2.339m-5.539-2.808c.781 2.539 2.421 7.187 5.031 5.156.039-3.629-.973-1.68-3.039-2.066.738-2.352 2.687-1.762 4.058-2.621-.699-3.832-3.59 1.8-6.05-.469m139.531 6.68c2.769.429 3.508-6.762 5.429-9.372-2.539 1.211-6.371 5.969-5.429 9.372m-43.602 119.179c.75 1.598 3.281-2.383 2.461 1.168 3.012-1.25-1.211-7.418-2.461-1.168m-48.59-52.769c-.39 5.148 3.911 1.718 6.332 3.359-.043-2.891-4.492-2-6.332-3.359m-51.718 53.75c3.558 5.617 13.199 4.179 17.539 3.898-1.95-4.801-11.52-.07-17.539-3.898m-18.59-6.762c-1.68-.469-.903-2.809-3.051-.738 0 3.629 9.18 2.808 3.051.738m-42.313 51.641c-2.187 4.73-.308 6.488-.699 9.879 4.223.16 3.633-5.348 4.223-8.86-1.41-.39-2.114-.629-3.524-1.019M622.031 568.32c-.269-.121-.551-.269-.82-.351-.191 1.48.269 2.23.98 2.691l2.34 34.262c4.528 66.719 28.239 130.156 68.59 183.476l25.629 33.872c-3.09 3.32-4.219 7.808-5.16 12.96 7.82-4.21-1.871 7.579 5.512 6.571-1.911 2.461-5.313 2.109-7.813 3.551-.629 2.07-1.129 3.949-1.719 5.898-14.531-1.48-30.468.16-43.05-5.629-29.61-13.633-56.481-13.351-84.411.399-.23-1.141-1.129-1.758-1.679-2.661-.821 1.95-.942 3.161-.739 3.911-1.882.929-3.75 1.789-5.632 2.89-17.18 10-38.629 12.5-56.25 21.91-29.098 15.551-49.258 40.66-64.098 70.821-9.18-7.661-7.5-16.211-2.93-26.52-17.422 4.719-29.609 13.32-36.293 28.469-3.828 8.75-6.519 17.969-9.718 27-37.192 105.27-250.75 91.6-253.559-14.031-.699-27.649 25.59-42.418 52.23-54.219-8.992 16.531-13.832 31.762-6.679 48.129 6.867 15.621 19.179 25.043 38.277 32.972-11.519-19.921-11.41-36.453 5.16-49.339 13.629-10.582 28.942-12.582 47.301-5.704-4.57 2.192-7.5 3.473-10.352 4.961-13.32 6.95-18.238 16.641-14.058 27.621 5.39 14.098 19.531 22.571 32.57 19.411 26.488-6.411 54.34-48.871 48.52-75.551-1.289-5.86-6.41-12.852-11.559-15.11-2.93-1.289-10.633 5.11-14.34 9.61-4.222 5.031-6.441 11.789-9.691 18.16-12.5-26.68-3.32-56.949 22.308-70.469 12.383-6.562 26.25-10.269 39.454-15.351 8.089-3.129 16.128-6.41 24.179-10.782-20-1.679-40.429-1.488-59.101-6.878 7.379-3.981 14.879-9.879 22.109-2.418 1.133-3.473-2.07-2.34-2.539-4.141 13.121 1.519 25.391-1.91 36.719-9.449a6055.413 6055.413 0 0 1-18.559-17.032c.789-1.14 1.57-2.308 2.352-3.441 3.547.551 7.066 1.012 10.617 1.602 28.91 4.839 56.601 3.988 83.359-10.942a720.464 720.464 0 0 1 20.043-10.66c-.902.742-1.41 1.992-.582 3.59 2.031 1.641 1.992-3.707 4.289-1.09.782-2.66-.777-3.519-2.297-3.199 15.661-7.969 31.559-15.469 47.457-23.012-1.207 4.844-2.66 9.692-5.117 12.543.981 3.078-.621 7.731 1.168 10.27-14.14 24.488-21.679 55.308-18.551 77.769-4.449 3.559-3.949 6.059-5.82 12.621 5.352.039 11.25-17.23 6.871-15.511 1.602-8.508 3.25-1.399 4.93-6.52 2.691-5.781-3.359.309-3.68-4.18 4.571-1.718 3.481-.898 6.102-6.211-2.231-.429-4.262-.16-5.711 1.563-1.988-4.41 7-12.652 2.109-16.871 5.672-4.61 2.582 5.621.473 9.679 3.238.79 1.488 3.051 4.687 1.329-1.679-2.457 1.911-11.207 4.571-12.887.511-2.891 1.8-6.293-1.45-6.762.079 5.942-1.519 2.039-3.71 6.801-2.571-3.121 8.05-10.551 1.058-13.981-1.558 2.848-.547 4.059-.898 6.129-3.789-4.609 2.621-13.007 5.55-21.019 4.29-11.399 7.071-25 10.54-36.289 2.699-1.281 5.429-2.571 8.128-3.86 13.321-6.41 21.723-16.722 25.821-30.55 6.761-22.891 15.511-44.61 33.242-61.762-13.09 6.172-25.551 12.973-37.191 20.59.121-1.797.671-3.828 2.269-6.449-2.379-1.559-7.461 6.25-3.789 7.46-28.52 18.989-51.559 43.52-63.238 79.61-1.172.238-2.274.43-3.403.672-2.89-7.192-5.781-14.34-8.949-22.274-36.25 39.383-80.031 59.032-136.558 45.551 13.007-3.668 24.57-6.019 35.429-10.16 17.418-6.598 29.34-19.488 35.117-37.109 10.153-31.09 29.102-55.149 56.172-73.122.782-.546 1.289-1.558 1.989-2.5-17.379-4.488-28.36 3.082-53.321 37.582.352-7 .043-11.718.864-16.25 7.699-42.781 35-67.308 74.957-79.769a1379.733 1379.733 0 0 0 59.851-20.121c5.309 2.148 11.949-3.82 12.57 1.609 2.86-.859 7.04 1.91 8.36-3.32-5.149.461-7.141-.399-9.879-2.391 13.519-5.039 26.949-10.226 40.238-15.777zM825.898 1133.05c2.813-1.88 7.973-5.63 5.743-8.44-4.059 1.17-1.911 1.8-2.34 4.77-2.699-.24-1.961-3.05-2.93-4.58-4.34 2.15 1.988 4.18-.473 8.25m.512-14.07c-1.058 3.36-1.64 6.41 2.57 5.71.551-2.97 1.141-6.02-2.57-5.71m18.199-21.05c.942-4.88 1.411-5 3.629-11.02.282-3.28-8.398 10.28-3.629 11.02m11.52 34.22c1.453-4.3 1.101-7.97 2.5-12.27-2.969-1.6-5.149 10.35-2.5 12.27m47.312-42.5c3.899-8.36.618-19.49 6.989-25.82-.469-1.95-2.309-.12-3.91.12-.899-4.15 4.14-2.23 3.992-5.63-2.352.47-2.313-.78-2.114-2.11-5.468 1.06-5.238 8.4-5.589 12.23-.661 7.61 1.062 16.76.632 21.21m6.52-45.55c-6.211.08-3.629 10.43 1.328 5.47 1.801-3.44-4.219-1.25-1.328-5.47m51.129 82.78c4.262-1.26 2.969-14.11.859-4.5-.539 2.5-3.199 2.27-.859 4.5m12.39-59.5c-5.281 4.77.071 16.17-4.179 26.1 6.32-7.23 4.679-20.04 4.179-26.1m75.82 27.42c.15 3.36 2.93-3.51 5.08-2.03-1.61-3.98-5.94-1.95-6.61-5.5-6.44 1.09 6.02 4.25 1.53 7.53m9.65-21.32c.5-1.92-2.11-3.17.39-5.55-2.15.31-3.75 2.03-5.16 4.26 1.33-.2 2.97.27 4.77 1.29m1.6 25.66c1.09-2.62.07-4.73-3.56-6.25-.78 2.58 2.03 4.26 3.56 6.25m3.12 14.88c3.13.39.28-4.14 3.21-6.25 1.24 1.53 1.17 3.36-.12 5.47 4.1-.35 4.06-4.45 4.72-6.56 3.17 2.34 0 6.17.71 9.14 3.94.47-.2-5.31 4.41-3.4.86-2.73-3.55-4.3-3.12-6.99.86.59 1.21.16 1.56-.39 1.87 1.41-.94 3.87 2.93 4.76-1.95-5.23 1.25-11.68.82-17.3 1.64-1.37 4.3-.39 6.09-1.37.32-1.13-.82-1.01-1.05-.54-2.58-1.72-1.76-4.34-1.95-6.57-4.3.98-3.09-.66-6.45-3.24 1.56 4.02-3.32 3.75-7.23.82-1.95 2.54 1.64 3.83.9 6.1-3.24-2.39-3.71-4.18-4.1.15-4.34-1.33-1.09-4.49-2.03-6.64-1.76 5.55.98 24.88.7 32.81m18.44 8.68c3.75.03.51-4.65 3.59-7-6.36-1.87-2.69 3.91-3.59 7m2.5-50.75c-1.68.08-3.52-.35-5.82-1.91 2.66 2.07 2.46 6.99 5.94 6.48.35-1.6-2.89-2.46-.12-4.57m-8.79 3.36c.39 1.72 1.88 3.21 1.21 5.12 1.25 1.25 4.53-2.07 3.67.78 3.52 1.06.04-2.38 2-3.48-1.84.36-4.34-.97-6.88-2.42m12.7 42.81c3.24 1.88-1.45-3.82 2.42-2.1-1.41-4.03.51-16.76 8.08-15.63-.54-4.06-4.84-1.05-6.91-2.34 1.56 3.47-8.71 10.82-3.59 20.07m2.73 7.78c1.21-.98 1.05-5.08 3.28-3.83-.47-3.63-10.43.98-3.28 3.83m34.57-27.15c-1.99-.08-4.53-1.45-5.12 1.68 3.21 3.59 5 1.91 5.12-1.68m-321.64 53.63c-.231-30.11 6.871-57.38 28.281-81.09-16.801 4.76-26.801 14.1-45.82 43.05-1.719-10.71-3.871-18.91-4.18-27.15-.781-23.83 7.461-45.31 20.508-64.61 10.351-15.31 22.582-29.381 34.101-43.869l4.731 6.25a189.862 189.862 0 0 0 3.469 4.527l2.351 3.133a49.47 49.47 0 0 0 4.649 5.309 169.736 169.736 0 0 0 56.171 41.87c-.16 1.22-.351 2.35-.82 3.29 1.867-.51 2.688-1.29 3.039-2.31 21.219 9.42 44.34 14.49 68.129 14.49 8.832 0 17.77-.7 26.521-2.07l67.07-10.58c-1.48 4.18 7.46 1.95 5.86 6.56 3.32-.2-1.36-5.2-5.62-6.6l13.98-2.23c-1.99 7.5-2.19 15.51.12 24.14 4.22 15.78 20.98 23.01 35.82 15.82 3.32-1.6 6.48-3.47 10.43-5.66-.04 13.51-1.8 25.7-7.93 35.31-4.02 1.49-6.99 5.31-11.92 4.96 1.8 2.66 5.79.28 9.26-1.44-3.71 4.53-8.51 8.43-15.04 11.4-14.68 6.6-26.36 5.35-36.21-.27.71-2.31 1.33-4.73 1.68-7.38-2.81-1.21-4.88-.71-6.17 1.48.63 1.13 1.95 2.11 3.91 2.93-.47.78-1.06 1.25-1.68 1.6-6.45-4.22-12.07-10.35-17.27-17.3.59-4.49 2.07-4.61 3.56-9.42-3.21-.82-4.46 2.86-5.82 6.21-.59-.78-1.14-1.6-1.68-2.38-4.69 13.4-9.11 26.1-13.52 38.79-4.65 13.48-3.91 26.09 6.41 36.88 5.82 6.09 12.11 11.75 18.24 17.69-14.81-.51-28.52-5.59-39.77-13.71-.35-1.52-2.14-2.81-4.02-3.2-1.76-1.53-3.48-3.09-5.12-4.73 1.72.47 1.92-2.03 2.74-3.36 3.43.55 2.3 2.5 5.11 3.24l1.61-3.75c-1.41-.74-4.96 2.42-4.85-.9-2.19.55-3.94 1.96-5.43 3.95-12.728-13.36-20.271-31.41-19.33-50.74.071-1.45.27-2.85.391-4.3-1.492 2.07-3.012 4.1-4.422 6.17-15.148 22.07-35.269 32-60.898 32.54-12.813.31-25.621-.58-41.403-1.05 10.622-7.07 18.903-11.64 26.051-17.54 13.641-11.33 12.461-22.97-2.5-31.99-21.48-13.01-33.937-8.32-41.289 15.62-2.57 8.44-4.961 16.92-6.988 25.47-.274 1.05-.66 1.99-.942 3.05l-.5-.2c.192.43.192.86.149 1.33-.149.51-.309 1.01-.469 1.48-.738 1.33-2.109 2.46-3.359 2.89-.192 1.84.789 1.64 2.07 1.45-.461 1.21-1.051 2.3-1.562 3.52-.27-.47-.618-.86-.7-1.41-1.64-1.37-.55.94-.199 3.36-9.211 20-25.699 33.12-47.73 41.25-.309.08-.59.15-.899.27 1.059-3.98 1.328-7.62.078-10.04-1.988 2.27-6.8 3.32-9.57 1.72-2.93 1.02 1.051 4.14-.117 7.62 2.887-1.13 1.406-5.63 3.867-6.6 3.832-1.1 2.231 2.26 4.883 2.11-1.481 1.56-2.813 4.53-6.094 4.37.274 1.1.274 2.07.192 3.01-20.739 6.13-41.598 6.37-61.559 2.89 14.258-6.13 29.918-11.68 44.34-19.45 13.59-7.39 23.789-19.18 23.629-35.67M2850.62 225.738c.2-4.367 1.33-12.187 6.96-9.758-2.31 3.668-3.48 9.532-6.96 9.758M2456.48 197.031c3.6.199 1.72-.859 2.23-2.929 2.31.859 1.6 2.777 2.42 4.179 3.83-.511-1.64-3.672.75-6.011-2.58.66-7.27 2.07-5.4 4.761m4.42 5.629c1.01-2.269 1.64-4.422-2.11-5-.55 2.11-1.17 4.25 2.11 5m103.63 49.57c7.85.821 9.49-7.429 16.41-8.089-4.1-4.301-12.66 9.687-14.96 3.558-3.64-.277.74 2.731-1.45 4.531m11.41 7.461c-3.79-3.011-5.28-1.019-4.77 2.5 1.95-.242 4.69.7 4.77-2.5m9.41-198.402c4.61-.039.98-4.84.04-6.84-3.55 2.582 2.38 3.13-2.23 5.512 1.41.078 2.07.55 2.19 1.328m11.99 7.813c4.46 2.07.9-9.723-.62-9.922-1.06 3.48 3.24 8.398.62 9.922m7.15 188.128c-2.11-3.21 6.76-12.109.16-20.39-3.48-1.328 2.07 3.512-2.03 2.461 2.07 3.75 2.3 16.597-5.32 16.75 1.22 3.949 4.93.277 7.19 1.179m5.71-25.98c-3.72.59.31 4.648-2.39 7.5 6.64.738 2.03-4.301 2.39-7.5m2.34-81.172c2.73-.699 2.54-5.039 6.09-4.726.86-2.653-7.97-.43-5.19-4.063-4.85 1.949.74 5.699-.9 8.789m9.1-12.109c.39-.778-.23-.981-.94-1.207l.47-1.883c-1.64 0-2.26 1.293-3.98 1.172.78-3.082 4.22-2.961 4.18-7.141-1.21.5-2.93.469-4.92 0-.2.93 1.25 1.051 2.1 1.442-1.83 4.378-4.68 5.039-2.3 9.527 3.01.902 1.8-3.508 5.39-1.91m4.49 94.57c-.82-1.019-2.3-1.719-4.33-2.23.9-2.34 2.85-3.2 5.82-2.539-5.2-6.481-5-11.09-.86-18.711-.86-2.11-1.56 1.921-4.61-1.207 1.48 10.117-2.31 17.347-1.84 27.226 2.97.703 4.89-.156 5.82-2.539m2.7-44.449c-2.15-.391-2.15-1.762-4.38-2.07 5-2.54 4.81-3.829-1.05-5.321-.2 10.59.74 11.602-.82 21.141 5.19.191 1.21-11.059 6.25-13.75m.97-58.52c-3.63 2.231-2.61 9.18-3 12.5 4.84-2.968 2.42-7.5 3-12.5m-5.66 39.141c.55.738 2.77-6.371-.98-6.25-1.71 3.09.36 4.34.98 6.25m3.01 11.84c-.82-3.75 1.01-8.711-3.24-10.86.31 4.059-2.03 9.258 3.24 10.86m1.09-60.321c-4.84 2.348-3.08-4.019-4.84-5.929-1.33 1.129-1.92 3.75-.04 5.969-1.45 1.878-3.63 2.851-7.66 1.531-2.58.82 6.45 2.687 4.69 5.898 2.73-.859-.31-3.519 2.54-5.469 4.8.04.94 4.532 6.41 4.219 2.11-3.328-2.31-3.328-1.1-6.219m-21.56-8.082c3.28.391 2.23-7.578 5.31-1.988 1.68 0 1.49-2.23 1.99-3.64-5.15-1.36-6.95 1.25-7.3 5.628m3.2 18.442c-3.47 2.34-2.26 8.039-2.3 9.488 3.16-2.656 2.3-7.109 2.3-9.488m-.78 65.89c-4.14-.109-1.05 1.61-2.46 4.418l3.48.864c1.68-2.703-2.66-2.582-1.02-5.282m.67-122.378c2.65.308 1.28-3.98 2.3-5.551-5.39-1.75 1.17 2.777-2.93 2.5-3.79-5.031 6.88-9.602 1.29-13.63.9 4.528-8.75 11.958-.66 16.68m-11.72 159.848c1.05 3.512 10.11-2.738 2.61-4.34-1.05 1.172-.19 5.192-2.61 4.34m4.18-87.039c-3.09 1.059-2.15 7.11-3.68 10.121 4.26-.98 2.19-6.25 6.96-8.441-1.68-.27-3.36-.539-3.28-1.68m-22.85-106.012c-2.15 1.762-6.33 1.293-7 4.762 4.18 1.25 10.74-7.96 7-4.762m-10.55 4.223c-4.45 5.82-3.63 8.98-2.78 15 8.29 5.86 2.04-11.101 2.78-15m71.17 211.25c.31-2.66-2.73-3.832-4.57-5.551-.63 2.77.74 4.692 4.57 5.551m7.15-14.812c-1.37.281-1.88 1.882-4.06.941.23 4.691-1.25 4.922-1.88 10 4.57.352 3.91-7.34 5.94-10.941m2.89 18.832c6.17-2.192-6.68-3.2-2.77-7.192-.71-3.277-2.31 3.949-4.69 2.852 2.26 3.64 6.17.898 7.46 4.34m12.89-177.34c-4.02-3.211-4.53-10.711-4.69-.782zm8.01 80.699c-1.92-.82-2.39.27-2.78 1.449-2.93-.238-2.14-2.39-5.66-2.269-.51 3.672 8.2 5.781 8.44.82m-1.64 12.109c2.18-.98 3.82-2.738 4.92-5.16-3.28-1.789-2.58 1.723-3.28 3.442-3.48.078-2.7-2.071-5.59-2.301l-.97 3.941c1.52.508 4.49-3.203 4.92.078m6.29-47.461c-2.82 1.911-5.24-2.777-8.44-.668 2.15 1.532 8.28 5.36 8.44.668m-8.05-26.168c-1.06 0-1.02-.589-.98-1.21-3.36-.161-.7 3.082 1.96 2.421l-.63 2.93c2.73.078 1.52-4.769 2.62-6.68-1.53.149-2.7.821-2.97 2.539m28.67 73.239c1.91-.547 3.59-2.11 4.81-5.981-4.5.512-.47-6.867-5-6.367-4.11 8.008 3.67 4.969.19 12.348m-208.4-37.66c.12.632.39 1.171 1.57 1.293-.47.976-1.29.277-1.18-.231-4.33 3.668-8.32 8.32-6.17 14.18 1.17-.781 3.32-.86 5.35-.352-1.48 15.192 4.1 29.492 17.35 44.41 9.41-9.488 17.97-18.91 25.54-28.281 1.49 4.844 7.82 12.422 10.08 17.223.47-6.563-5.82-12.34-9.18-18.321 14.45-18 25.12-36.05 30.16-55.07 8.24-30.75-3.4-58.129-52.89-79.5-.63-.27-.32-1.012-.63-2.219 4.3 0 8.48.149 12.66.309.27.7.55 1.371.62 1.91 1.33-.039 1.18-1.71 2.74-1.48-.12-.121-.24-.23-.35-.352 9.92.434 19.49 1.293 28.86 2.461-.89 2.582-1.64 5.192-1.29 8.59 2.5-3.469 4.15-2.027 4.57 1.68 2.27-1.559 5.16-6.168 3.95-8.04.86-.507 1.99-.628 3.24-.71 2.85.43 5.74.863 8.52 1.41-.04 1.64-2.03 3.48.58 5 .82-.938 1.64-2.54 2.31-4.418a341.64 341.64 0 0 1 36.72 9.258c.31.71.66 1.41 1.09 2.23 1.25.121 1.99-.348 2.46-1.129 1.29.39 2.58.89 3.91 1.32.98 3.48.08 7.47-4.22 8.051 2.5 3.668 1.37 8.828-1.13 12.7.27 3 2.73-.512 4.72.78-2.81-8.523.98-12.581 5.94-18.952-1.56.39-2.42-.348-2.81-1.72 1.91.673 3.83 1.29 5.7 2-.23 4.06-1.01 7.18-6.68 7.11-.43 6.403 6.13 4.25 5.51 9.801-4.06 4.3-5.63 9.371-8.59 12.5-.86-.66-1.72-1.328-3.32-1.559.43-2.62 2.34-1.601.78-3.832-2.19 5-3.56 12.5-1.06 16.641-1.17 3.48-4.33 3.672-5.7 3.95-1.02 4.331 3.05 2.53 5.66 1.991 1.72-6.172.78-8.71 2.85-13.363 7.19 1.332 5.08 9.492 1.33 11.133.08 1.41 2.78 1.328 4.53 1.84-.07 3.551-.7 4.879-.86 9.801l4.73.898c2.07-3.16-.66-4.34-.55-9.102.79-2.457 1.76 1.68 4.73.864 2.97-3.133-1.17-5.633 1.8-8.711-2.46 1.09-3.64 3.668-5.94 4.96-1.37-1.25-1.8-3.011-2.73-4.492 2.03-1.57 4.88-2.19 5.93-4.968 2.23-.192 4.3 3.718 5.9 1.058-.78-.699-2.26-9.53 1.06-10.859-1.96-4.102-4.38-1.09-6.33.941-3.17-2.07-.31-4.492 1.33-6.761 2.38.941 3.32 3.398 5.74 1.949-4.06-3.79.04-6.36.98-11.867-3.99-1.492-3.21-5.711-5.9-7.934h.04c29.64 11.793 40.93 28.082 44.18 46.602-.71-.86-1.57-1.68-2.74-2.309-.74 3.641 2.42 5.039 3.28 7.777-.39.782-1.36.782-1.56 1.801-1.91-1.527.51-7.308-3.91-4.847 2.46 2.968 1.68 7.769 5.24 10.199.62-1.063 1.09-2.313 1.44-3.641 12.97-7.808 25.75-14.25 38.48-19.57-.86 1.25-2.19 3.91-4.02 8.558 4.18-.43 2.15 4.411 5.47 4.692-1.18-5.63-.16-11.25-.2-13.32 0-.2-.04-.32-.04-.43 7.93-3.25 15.82-6.02 23.71-8.36-1.83 4.88-4.1 9.68-6.21 14.41-2.3 4.45-3.59 9.411-4.37 14.098-.71 4.34-.79 8.524-.04 12.5-1.41 2.391-2.66 4.813-3.6 7.352-.31.859-.47 1.68-.7 2.539-2.7 6.211-4.69 13.043-.47 13.742v.039c-8.79 4.418-1.13 22.192-10.58 27.969-.32 2.82.19 4.961 2.42 5.43-5.39 8.711-7.89 17.421-8.24 26.332-6.02-2.93-11.76-6.09-17.31-9.34.74-.781 1.37-1.91 1.72-4.25-5.12-3.129 5.78-11.531-1.6-12.582-.43 4.652-1.64 9.84-2.78 15.269-2.14-1.289-4.45-2.457-6.52-3.789 1.68 3.172 2.58 6.492 5.27 9.422.04.039.08.078.12.109-.27 1.532-.58 3.051-.82 4.61-1.84 10.898-3.01 21.57.35 28.789 2.66-6.75-1.72-19.801 3.17-13.59-2.35-3.437 1.13-10.66-.51-14.879-.35-1.14-1.09-2.039-2.31-2.621.08-.82.24-1.449.39-2.027 1.84 1.988 3.75 3.898 5.71 5.859 5.23 5.231 10.58 10.43 15.51 15.738.7 8.981 1.71 17.969 1.44 27.153-1.68 1.398-3.67 2.808-6.01 4.179a222.88 222.88 0 0 0-5.63 3.36c-3.05 1.91-5.86 3.898-8.28 5.969h-55.7c-1.37-8.04-4.93-20.11-5.75-26.09-3.16.121.43 4.14-2.11 6.679-1.48-1.289-1.71-3.089-.82-5.39-3.98 1.011-3.24 5.082-3.55 7.261-3.52-1.789-1.06-6.089-2.23-8.902-3.98.192 1.1 5.231-3.79 4.102-.35 2.851 4.26 3.629 4.26 6.371-.9-.43-1.21.078-1.44.621-2.11-1.012.27-3.942-3.71-4.184 2.81 4.813.74 11.723 2.14 17.192-1.36 1.601-4.06 1.172-5.7 2.34H2441.8c.08-2.61-.08-5.192-.59-7.731-2.3-10.898-6.01-21.801-10.86-32.461-15.04-33.398 8.83-60.039 57.46-84.769M2884.57 248.949c1.6.071 1.91-2.82 2.7-4.769-1.14-1.801-2.89-3.129-6.06-3.282-2.93 5.942 5.43 2.813 3.36 8.051m31.91 9.68c.2-2.969-3.39-1.328-4.53-2.731-1.79 1.403 2.11 3.512 4.53 2.731m6.88-47.18c1.02-3.168 1.56-4.769 2.58-7.929-3.75-2.071-3.32 6.949-6.37 6.75-.19 2.539 1.84-.11 3.79 1.179m18.67 15.93c-1.13-4.527-3.2-8.43-5.98-11.949.55 1.679.24 3.949-.7 6.601 5.31-.23 2.42 4.918 6.68 5.348m42.31-64.649c-6.96 8.051-7.23 13.36-8.09 23.09 7.27 10.551 5.55-17.269 8.09-23.09m10.54 25.629c.24.039.28.192.43.231.31 1.211.78 2.269 1.57 2.89-.04-.269 0-.66-.04-.929 0 .07.07.109.07.187 5 .742 2.43-7.148 2-10.347-3.75 2.66-.32 4.449-2.07 6.519.15-4.449.62-10.269.89-16.398-1.4 3.078-3.71 12.258-2.53 17.648-.12.078-.16.121-.32.199m-130.47 23.789c-.03-5.386 1.64-15.668 4.11-26.367 4.92 5.899 16.6 9.61 31.71 9.918 19.81.391 37.11-2.648 44.61-12.148 4.93-6.25 9.69-13.981 6.53-20.031-7.03-13.442-17.66-26.45-27.58-39.5.98-1.829 2.26-4.961 2.66-6.129-1.68-.59-2.39-1.68-2.35-3.243 6.72 2.461 12.97 5 18.75 7.622-4.8-.942-3.79 7.109-4.41 10.742 1.44.226 2.07-2.66 3.63-1.961-.59-2.461-2.19-4.371.82-8.781 11.64 5.269 21.41 10.82 29.45 16.601-2.46 4.649-4.8 9.219-5.97 15.859 4.1-5.121 5.23-2.39 4.22 3.59 3.04-2.07 7.89-8.672 7.38-11.91.98-.512 2.07-.551 3.24-.39 2.74 2.46 5.27 4.96 7.46 7.531-.7 1.449-1.09 2.929.16 4.648.55-.578 1.09-1.32 1.72-2.179 1.01 1.32 2.07 2.652 2.97 4.019-2.15.512-4.38 1.012-5.63 4.34 1.76 1.172 4.61-.469 6.88-2.391 11.79 19.141 10.43 40.434.19 63.282 8.79-7.5 16.09-15.071 23.87-22.461-1.53 3.562-2.03 7.191 1.29 10.671 2.81.86 2.3-5.468 3.79-7.5-5.39-3.402.58 4.098-3.75 3.04-1.61-4.411 1.64-7.77 3.94-11.09.35-.309.63-.629.98-.899 1.33-1.172 2.93-2.23 4.37-3.32.16 4.84-1.83 10.039-4.72 14.059-.47 4.261 3.04-.27 4.92 1.878-.9-10.078 2.42-15.386 7.3-21.058 2.19-1.32 4.34-2.649 6.68-3.86-1.21 5.969-2.58 10.622-8.98 9.219-1.99 8.86 5.58 7.18 3.63 14.68-5.39 5.082-8.08 11.961-11.91 15.902-.78-1.011-1.6-2.07-3.32-2.621 1.01-3.629 2.89-1.91 1.64-5.269-3.4 6.679-6.49 17.269-4.49 23.32-2 4.687-5.55 4.809-7.15 5.117-1.96 6.094 2.93 3.75 5.97 3.16 3.05-8.508 2.5-12.148 5.71-18.437 7.61 2.699 3.82 13.597-.67 15.629-.15 1.91 2.85 2.031 4.69 2.808-.51 3.481-1.17 5.391-1.99 9.141-.16.781-.43 2.312-.78 4.223 1.75.468 2.85.738 4.37 1.168h-13.08c.39-1.008.62-2.258 1.05-3.2-3.94-1.519-6.29 0-7.81 3.2h-85.78c.7-.149 1.56-.43 2.69-1.008-.31-1.762-10.74-.981-2.77-4.883-3.28-1.918-5.2 2.461-7.77 3.121 4.21-1.25 4.06 2.148 6.32 2.77h-39.33c3.4-3.161-.78-10-2.35-12.692-4.1 8.082 4.3 6.133 2.11 12.692h-8.75c-.5-2.93-.82-6.008-4.76-6.129-.16 2.578 2.89 2.461 1.44 6.129h-18.12v-.27c1.01-2.301 3.63-.82 5.7-.699-4.34-6.68-1.8-21.762 1.02-33.91 1.56-6.84 3.47-12.621 4.25-15.743" transform="matrix(.13333 0 0 -.13333 0 181.333)"/><path style="fill:#dd161d;fill-opacity:1;fill-rule:nonzero;stroke:none" d="M2491.72 135.82c-.31.7-.47 1.41-.7 2.11-.12-.551-.32-1.051-.32-1.559.35-.199.67-.351 1.02-.551M2758.36 86.09c.74-.621 1.37-1.48 3.09-.93-.63-4.3.43-3.87.27-8.441-.08-.39.16-.7.55-.938 1.17-.23 2.38-.512 3.55-.742.63 2.383-1.25 7.383-1.84 9.492 7.82 3.168 5.28 1.95 12.23-.12-1.72-1.712-6.72-.5-5-6.13-2.03-.703-3.16 5.43.43 4.297-1.02.863-2.42 1.211-3.91 1.48-.5-2.93-1.17-10.43 4.03-8.898-.12-.281-.16-.59-.28-.86 15.47-2.23 31.02-2.89 46.84-1.679-7.34 2.258-13.71 4.18-19.88 6.207-11.88 3.903-22.46 8.281-31.84 13.05a.938.938 0 0 1-.19-.55c-.82.39-1.14.82-1.25 1.293-3.71 1.91-7.19 3.938-10.47 6.008 1.52-4.25 2.81-8.469 3.67-12.54M2831.33 183.789c-.67 4.449.27 8.012-.39 12.5 3.2 1.09 3.36-11.059.39-12.5m1.09-62.027c-3.79 1.476-.94 6.789-1.95 9.687 4.37.11 1.33-6.371 1.95-9.687m-102.77 88.008c.58-6.649 1.09-13.29 1.4-19.93.71-3.75 2.31-3.711 3.95-3.512-.86-5.777 7.23-19.449 3.12-22.418.36-.43.59-.98.94-1.449 3.56 2.539 7.7 4.961 12.82 7.23 17.14 7.649 37.5 8.43 55 2.848 0 .082-.08.121-.08.16l3.51.781c.04-1.14.31-1.96.82-2.429.35-.153.67-.313.98-.43.39-.07.78-.031 1.29.117-.08-.269-.35-.269-.47-.468 4.37-1.872 8.32-3.981 11.64-6.36 1.05 1.051 2.27 1.789-.31 2.34-.39.898.23 1.129.94 1.328l2.34.512c-1.52-2.11.66-5.16 2.69-6.289-.11-1.41-.74-1.492-1.56-1.25 8.52-7.891 11.33-17.352 5.24-25.352-3.75-4.929-12.46-10.429-21.76-12.308-1.95-.43-4.61-.039-7.58.699-.82-2.219-2.38-3.512-4.26-1.988.08 1.168.59 1.949.9 2.929-4.76 1.449-9.96 3.438-14.53 4.649-.94.23-2.11.351-3.16.511-15.36-10.711-8.99-21.921 15.11-26.679 26.25-5.203 54.69 1.047 61.25 14.566 3.32 6.801.59 14.262 1.25 21.402.43 5.079.75 10.161 1.1 15.239-.75 9.301-1.57 18.402 2.61 21.051.2 1.019.43 2.031.67 3.05-3.36 9.02-4.14 16.168-4.69 23.16-2.03 2.04-4.53 2.54-6.84 3.79.32 5-1.75 8.75-3.75 13.25.04-1.68-.35-2.969-1.75-2.93-.12 4.961-.55 5.148-1.76 11.441.08.59.31.469.66.117-.11.512-.23.973-.31 1.563 3.63-3.012 2.34 1.449 4.73 3.09-2.19 7.07-7.39.929-3.21 6.91-3.04 5.391-5.11-1.641-7.61 7.848 8.55-5.821-.51 9.031 6.91 5.351-3.79 5-3.59 8.211-6.21 10.86h-20c-3.16-5.661-7.62-10.93-13.59-15.7-8.56-6.84-20.16-12.66-35.2-17.23-15.51-4.68-30.04-9.84-43.79-15.5.2-1.531.39-3.051.55-4.57M2483.01 149.648c1.37-.976 2.46-2.226 5.15-1.558-.27 1.398-.62 2.769-.74 4.18-.12 0-.12.109-.23.109-3.36-.078-1.88-2.219-4.18-2.731M2487.54 141.48c.98-.621 1.48-.152 2.3-.191a65.125 65.125 0 0 0-1.6 6.25c-.74-2.848 2.62-3.828-.7-6.059M3041.56 211.328c-3.12-2.066 1.33-10.738 5.71-9.219-.08 3.36-.08 12.153-5.71 9.219M2913.12 112.422c-.89-.82-1.67-1.524-2.69-2.461 1.13.348 2.11.738 3.2 1.09-.15.469-.31.898-.51 1.371M2632.97 262.77v-.071c.08 0 .15.031.27.071zM2918.32 117.461c.66-1.441 1.29-2.852 1.76-4.18.62.239 1.33.469 1.95.668-.58 2.461 2.97 5.461.94 9.02-.86-1.09-1.72-2.231-2.54-3.321-.55-.699-1.41-1.488-2.11-2.187M3014.73 262.77h-1.84c.59-1.09 1.13-1.481 1.84 0M3086.29 254.801c5.16 3.051 10.98 5.75 17.5 7.969h-14.53c.08-2.848-.74-5.7-2.97-7.969M2632.58 62.93c.47 2.422 1.72 8.832-3.79 7.379-3.13-1.09-.39-7.809 3.79-7.38" transform="matrix(.13333 0 0 -.13333 0 181.333)"/><path style="fill:#dd161d;fill-opacity:1;fill-rule:nonzero;stroke:none" d="M3052.15 180.82a189.97 189.97 0 0 1 14.73-5.82c-.28 3.09-.67 6.129-1.06 9.18-.78-.508-1.6-.309-2.7 2.191.94-.351 1.72-.199 2.35.27-1.95 13.437-4.57 26.64-1.99 39.57 2.26 11.328 9.96 20.629 21.56 27.809-.9 3.75 1.68 5.82 2.42 8.75h-2.42c-.04-2.54.74-5.579-3.01-3.79.7 1.141 1.02 2.469 1.25 3.79h-4.76c2.42-.348 1.91-5.579 3.32-7.649-1.68.039-3.05.66-3.6 2.688-1.13-.11-1.01-.821-.86-1.559-3.67-.551-1.21 3.672 1.8 3.129-.43 1.359-.66 2.07-1.09 3.391h-46.88c1.06-1.641 1.29-2.891 1.21-4.25-.15-1.961-.82-4.11-.27-7.86 1.33-3.199 1.68 2.43 5.08 1.488 3.82-3.867-.32-7.578 3.51-11.41-2.89 1.172-4.65 4.532-7.42 6.063-1.33-1.762-1.48-4.223-2.19-6.332 2.5-1.949 5.71-2.5 7.39-6.059 2.46 0 4.06 5.43 6.28 2.11-.78-.969-.78-13.04 3.05-14.29-1.4-5.82-4.53-2.191-6.99.27-3.13-3.32.47-6.172 2.77-8.949 2.35 1.758 2.85 5.16 5.78 3.64-3.59-5.711 1.37-8.441 3.52-15.55-3.87-2.852-2.15-8.321-4.49-11.95 1.29-4.421 5.43-2.191 7.18-5.351-1.71-.078-2.81-1.449-3.47-3.52" transform="matrix(.13333 0 0 -.13333 0 181.333)"/><path style="fill:#d5be9e;fill-opacity:1;fill-rule:nonzero;stroke:none" d="M1168.63 122.539c.59-2.738.82-4.918.9-6.449.12-1.481.2-2.301.2-2.301s-.04-.777-.04-2.309c-.04-1.519-.12-3.71-.55-6.519-.82-5.473-3.05-13.672-9.18-20.82-3.05-3.403-7.11-6.72-11.87-7.422-.86-.238-1.84-.238-2.7-.2l1.41 2.352h-.04c.04.078.08.11.12.188l21.67 43.793c0-.082.04-.192.08-.313m-61.01-8.75c0 18.633 8.32 33.981 19.18 36.723-4.22-4.692-7.07-10.242-8.83-16.063-.94-3.359-1.76-6.789-2.11-10.269-.27-1.68-.35-3.52-.47-5.309-.08-1.84 0-3.133-.04-5.082.24-6.91 1.49-13.789 3.87-20.238 2.46-6.36 6.01-12.422 11.21-16.832.12-.117.23-.16.31-.238h-.47c-12.5 0-22.65 16.757-22.65 37.308m44.61 32.852-25.98-51.02c-.04.117-.08.2-.12.32-1.68 5.7-2.42 11.789-2.26 17.848.15 1.332.19 3.242.39 4.652.23 1.438.35 2.848.7 4.329.51 2.929 1.45 5.75 2.42 8.441 2.23 5.269 5.12 10.16 8.83 13.238 3.67 3.172 7.23 4.5 11.52 3.789 1.41-.148 2.97-.777 4.5-1.597M1134.38 87.5l6.83-7.621-1.25-2.11c-1.91.82-3.79 2-5.39 3.56-1.21 1.132-2.23 2.421-3.24 3.831zm23.55 55.039-25.31-49.648-2.93-2.27 26.99 53.008c.43-.391.86-.738 1.25-1.09m11.84-5.16-25.94-52.418-5.9 6.598 27.46 53.91zm-2.07 15.082c-.47.859-1.41 1.41-2.35 1.41-.23.039-.39-.082-.58-.121v.039l-5.39-1.168c-.28.231-.47.539-.75.777-2.38 2.153-5.04 3.942-9.06 4.922-3.28.942-7.19 1.09-10.94-.039-1.52-.429-2.93-1.133-4.29-1.832h-4.07c-15.43 0-28-19.148-28-42.66 0-23.52 12.57-42.617 28-42.617h14.69v.078c1.56.04 2.89.2 4.26.629 6.25 1.75 10.47 6.21 13.24 10.351 2.77 4.329 4.38 8.63 5.51 12.5 1.09 3.86 1.68 7.258 2.11 10.11.31 2.859.58 5.082.62 6.609.04 1.52.08 2.34.08 2.34s.2 3.281-.19 9.02c-.08 1.062-.2 2.23-.36 3.48l4.93 9.961c.39.781.35 1.68-.04 2.461zM1647.54 185.43c.51-2.149.66-3.871.74-5.039.08-1.172.12-1.801.12-1.801s0-.621-.04-1.789c0-1.211-.08-2.93-.39-5.121-.63-4.258-2.38-10.66-7.19-16.25-2.38-2.66-5.55-5.231-9.26-5.821-.66-.16-1.44-.16-2.11-.16l1.1 1.879-.08.043c.04.039.12.039.16.078l16.91 34.211c0-.07.04-.148.04-.23m-47.66-6.84c0 14.531 6.53 26.531 15 28.68-3.28-3.68-5.54-8.008-6.91-12.54-.7-2.66-1.33-5.32-1.64-8.011-.2-1.328-.24-2.77-.35-4.141-.08-1.449 0-2.5-.04-3.988.19-5.43 1.17-10.781 3.01-15.82 1.95-4.961 4.72-9.68 8.78-13.161.08-.039.16-.078.24-.16h-.39c-9.73 0-17.7 13.09-17.7 29.141m34.89 25.672-20.28-39.852c-.04.078-.08.16-.11.238-1.33 4.454-1.92 9.223-1.76 13.942.11 1.019.11 2.539.27 3.601.2 1.129.27 2.219.55 3.399.39 2.301 1.13 4.488 1.91 6.601 1.72 4.137 3.99 7.93 6.88 10.348 2.89 2.461 5.66 3.512 8.98 2.973 1.13-.16 2.34-.633 3.56-1.25m-13.95-46.211 5.31-5.942-.97-1.679c-1.49.66-2.93 1.601-4.22 2.769-.9.903-1.6 2.071-2.35 3.129zm18.36 42.969-19.73-38.75-2.3-1.758 21.09 41.367c.31-.277.63-.551.94-.859m9.26-4.032-20.24-40.937-4.61 5.16 21.45 42.109zm4.18 1.024-5.82 10.777a2.07 2.07 0 0 1-1.8 1.09c-.2.043-.31-.078-.47-.078v.039l-4.22-.93c-.19.192-.35.43-.54.621-1.88 1.641-3.99 3.047-7.07 3.828-2.58.7-5.67.86-8.6-.039-1.17-.308-2.26-.859-3.32-1.441h-3.2c-12.03 0-21.84-14.93-21.84-33.289 0-18.36 9.81-33.32 21.84-33.32h11.48v.121c1.21.039 2.27.121 3.32.468 4.89 1.332 8.17 4.801 10.35 8.09 2.15 3.352 3.4 6.711 4.3 9.723a58.448 58.448 0 0 1 1.64 7.93c.28 2.226.47 3.988.51 5.16.04 1.168.08 1.828.08 1.828s.15 2.539-.16 7.031c-.08.828-.19 1.758-.31 2.738l3.87 7.77c.31.59.27 1.293-.04 1.883M1530.86 163.32c-6.06-.511-12.77-1.05-20.04-1.718-.16 6.757-.62 13.277-1.33 18.789.12.039.2.039.28.039 8.16 1.25 15.62 2.422 22.26 3.48-.7-6.14-1.13-13.32-1.17-20.59m1.41-23.48c-6.68-.539-14.18-1.168-22.39-1.91.59 5.781.98 12.422 1.02 19.101 7.26 1.09 13.98 2.149 20 3.129.12-7.351.62-14.422 1.37-20.32m-50.47-4.531c.54 5.39.86 11.453.9 17.543 7.03 1.058 13.63 2.027 20 2.968.07-6.48.42-12.89 1.05-18.48-6.95-.66-14.22-1.32-21.95-2.031m-28.01-2.848c.43 5.16.74 10.777.74 16.488 6.88.852 13.52 1.789 20 2.731.08-5.942.39-11.801.9-16.989-7.03-.671-14.22-1.41-21.64-2.23m-28.24-3.16c.47 5 .74 10.429.78 15.969 6.79.902 13.44 1.761 20 2.621.08-5.621.35-11.172.82-16.172-7.11-.821-14.26-1.598-21.6-2.418m-36.1-4.071c-6.83-.851-13.63-1.75-20.43-2.609.51 4.801.82 10.188.94 15.738 6.68.743 13.36 1.481 20.08 2.262.12-5.351.43-10.543.9-15.191-.51-.078-.98-.121-1.49-.2m-63.75-8.242c-4.41-.539-8.71-1.129-12.93-1.718.51 5.199.78 10.98.86 16.878 4.26.43 8.52.864 12.89 1.372 2.54.269 5.2.539 7.74.859.15-5.668.47-11.219.94-16.141-3.13-.429-6.41-.859-9.5-1.25m-40.23 12.461c6.37.59 13.08 1.211 20 1.879.08-5.937.43-11.797.94-16.949-7.62-1.098-15-2.188-21.96-3.25.59 5.551.94 11.883 1.02 18.32m-15.31-20.429c-5-.739-9.65-1.442-14.11-2.141.71 5.891 1.18 12.891 1.22 20 4.25.351 8.71.742 13.43 1.172 2.11.187 4.38.39 6.6.621.08-6.524.47-12.891 1.1-18.442-2.78-.39-5.59-.82-8.24-1.21m-14.14 41.332c4.6.386 9.45.777 14.68 1.289 2.5.238 5.16.468 7.78.699-.63-5.539-1.06-12.031-1.18-18.668-2.38-.352-4.84-.703-7.14-1.051-4.54-.672-8.79-1.332-12.89-2-.08 7.039-.55 13.91-1.25 19.731m29.41-15.512c-.16 6.488-.59 12.699-1.21 18.09 7.11.621 14.65 1.332 22.42 2.109-.59-5.16-.98-11.09-1.13-17.23-6.96-1.008-13.67-1.989-20.08-2.969m41.09 22.269c2.82.27 5.78.621 8.64.942-.47-5-.78-10.629-.9-16.332-2.81-.391-5.78-.778-8.56-1.129a560.14 560.14 0 0 1-12.15-1.641c-.15 5.973-.58 11.672-1.17 16.641 4.65.461 9.34.93 14.14 1.519m15.82-14.379c-.11 5.629-.43 11.141-.93 16.02 7.07.781 14.1 1.559 21.32 2.379a215.91 215.91 0 0 1-.89-15.859c-6.61-.86-13.01-1.68-19.5-2.54m19.54-5.269c.15-5.551.46-10.902.97-15.66-7.26-.942-14.3-1.84-21.37-2.781.47 5 .79 10.589.9 16.25 6.45.75 12.89 1.449 19.5 2.191m28.55 26.801c.19 0 .35.039.55.039-.51-4.692-.82-10-.94-15.391-.2-.039-.39-.039-.59-.082-6.52-.816-13-1.68-19.53-2.5-.12 5.434-.43 10.781-.94 15.512 7.15.82 14.26 1.601 21.45 2.422m7.66-14.461c-.16 5.398-.47 10.668-.98 15.32 7.46.93 14.88 1.91 22.23 2.848-.55-4.809-.94-10.239-1.1-15.899-6.68-.742-13.4-1.519-20.15-2.269m20.07-5.539c.08-5.473.39-10.864.86-15.711-7.22-.821-14.49-1.602-21.75-2.422.46 4.769.78 10.082.85 15.512 6.72.859 13.44 1.757 20.04 2.621m8.09 8.707c-.2 5.66-.63 11.011-1.21 15.742 7.69.98 15.19 1.949 22.62 2.93-.59-4.879-1.02-10.512-1.25-16.442-6.61-.75-13.32-1.488-20.16-2.23m27.97 19.531c7.42.941 14.57 1.91 21.52 2.93a203.4 203.4 0 0 1-1.17-17.231c-6.56-.621-13.24-1.32-20.16-2.109-.23 5.898-.7 11.449-1.29 16.25.36.039.75.082 1.1.16m48.51-11.641c-6.4-.629-13.04-1.211-20.11-1.879-.16 6.219-.63 12.149-1.25 17.27 7.93 1.172 15.43 2.301 22.58 3.359-.67-5.589-1.1-12.07-1.22-18.75m61.1 28.442s-10-.59-26.37-1.879c-.04.348-.08.738-.16 1.098-1.09 6.992-2.34 11.64-2.34 11.64s-1.29-4.648-2.34-11.64c-.08-.469-.16-1.02-.2-1.489-6.87-.551-14.65-1.211-23.2-1.992-.12 0-.27 0-.39-.039-.98 6.02-2.03 10-2.03 10s-1.14-4.141-2.15-10.391c-7.58-.738-15.67-1.449-24.18-2.269-.94 5.281-1.88 8.711-1.88 8.711s-.93-3.59-1.91-9.063c-7.54-.738-15.27-1.476-23.32-2.418-.43-.039-.9-.082-1.37-.16-.82 4.418-1.56 7.149-1.56 7.149s-.78-2.93-1.64-7.5c-8.17-.899-16.41-1.829-24.88-2.77-.86 4.652-1.64 7.621-1.64 7.621s-.86-3.129-1.72-8.012c-8.13-.898-16.37-1.839-24.61-2.738-.94 5.36-1.88 8.871-1.88 8.871s-.97-3.711-1.95-9.301c-.86-.109-1.76-.191-2.66-.308-7.22-.942-14.37-1.871-21.52-2.774-.98 5.864-2.03 9.762-2.03 9.762s-1.1-4.14-2.11-10.308c-7.93-1.012-15.63-2.032-23.32-3.012-1.02 6.488-2.15 10.82-2.15 10.82s-1.21-4.57-2.27-11.398c-3.43-.434-6.99-.903-10.35-1.332-4.88-.629-9.65-1.289-14.29-1.91-.94 5.23-1.88 8.671-1.88 8.671s-.98-3.671-1.91-9.222c-8.4-1.207-16.53-2.418-24.14-3.559-1.02 6.102-2.11 10.16-2.11 10.16s-1.17-4.34-2.19-10.781c-3.09-.469-6.13-.898-9.02-1.328-5.2-.781-10-1.52-14.61-2.262v.11c-1.1 6.992-2.35 11.64-2.35 11.64s-1.29-4.648-2.38-11.64c-.04-.27-.04-.579-.08-.86-21.33-3.429-34.65-5.859-34.65-5.859s13.17.82 34.22 2.539c-.7-6.09-1.17-13.238-1.21-20.539-20.39-3.289-33.01-5.551-33.01-5.551s12.66.742 33.01 2.422c.12-7.262.59-14.332 1.33-20.231-21.13-3.402-34.34-5.781-34.34-5.781s13.4.821 34.73 2.531c1.09-6.949 2.38-11.601 2.38-11.601s1.29 4.691 2.35 11.641c.04.121.04.281.04.351 4.76.43 9.72.828 15.11 1.328 2.66.281 5.51.551 8.32.781 1.1-6.87 2.35-11.48 2.35-11.48s1.29 4.691 2.38 11.68c0 .082 0 .191.04.269 7.38.672 15.27 1.41 23.4 2.192 1.09-6.911 2.34-11.52 2.34-11.52s1.29 4.68 2.38 11.68c.04.07.04.23.04.308 4.77.469 9.65.981 14.57 1.563 3.13.348 6.45.699 9.65 1.058 1.02-6.449 2.15-10.781 2.15-10.781s1.17 4.531 2.23 11.281c7.73.86 15.47 1.719 23.4 2.622.97-5.582 1.95-9.262 1.95-9.262s1.05 3.871 2.03 9.73c7.5.821 14.96 1.641 22.5 2.5.55.078 1.05.121 1.6.2 1.02-5.899 2.03-9.809 2.03-9.809s1.14 4.141 2.15 10.348c7.93 1.019 15.86 2.031 23.71 3.05 1.06-6.91 2.35-11.519 2.35-11.519s1.25 4.64 2.34 11.64c.04.149.04.348.08.5 7.89 1.02 15.62 2.04 23.28 3.008.04-.269.04-.578.08-.859 1.09-6.949 2.38-11.641 2.38-11.641s1.29 4.692 2.38 11.641c.04.473.12 1.019.16 1.531.43.039.86.07 1.25.149 7.58.98 14.88 1.992 21.99 3.011 0-.039 0-.121.04-.199 1.05-6.992 2.34-11.641 2.34-11.641s1.29 4.649 2.39 11.641c.04.32.07.629.11.899 8.21 1.21 15.94 2.39 23.29 3.48 0-.16 0-.309.03-.43 1.1-6.992 2.39-11.64 2.39-11.64s1.25 4.648 2.34 11.64c.08.352.08.782.16 1.129.15 0 .31.039.47.082 8.43 1.289 16.09 2.457 22.89 3.559 1.09-6.719 2.3-11.25 2.3-11.25s1.29 4.64 2.34 11.64c.04.11.04.27.08.391 16.41 2.688 26.45 4.488 26.45 4.488s-9.92-.589-26.13-1.839c.78 6.179 1.28 13.601 1.36 21.21 15.43 2.54 24.77 4.219 24.77 4.219s-9.34-.539-24.77-1.75c-.08 7.461-.54 14.762-1.29 20.891 16.18 2.66 26.06 4.461 26.06 4.461M1532.85 844.059c23.28-3.079 47.23-6.289 71.68-9.528 12.23-1.64 24.61-3.281 37.11-4.961 12.66-1.172 24.49-4.218 35.98-9.41 22.89-10.238 42.38-28.359 55.9-50.359.54-.891.89-1.871 1.44-2.731h6.99c-1.09 1.95-2.18 3.95-3.36 5.86-14.29 22.769-34.76 41.558-58.82 52.109-11.96 5.352-25.08 8.441-37.5 9.531-12.5 1.602-24.85 3.2-37.11 4.77-24.46 3.121-48.4 6.211-71.72 9.211-46.64 5.98-90.71 11.648-131.41 16.84-162.85 20.16-271.41 33.558-271.41 33.558s108.36-14.969 270.9-37.39c40.67-5.387 84.73-11.289 131.33-17.5M1752.07 262.77c-8.91-8.79-19.18-16.008-30.51-20.891-5.7-2.5-11.64-4.379-17.65-5.707-5.79-1.293-12.46-1.641-18.6-2.5a8478.67 8478.67 0 0 0-37.15-4.453c-24.49-2.93-48.47-5.821-71.79-8.598-46.68-5.582-90.78-10.851-131.53-15.742-162.85-20.231-271.4-33.75-271.4-33.75s108.71 11.961 271.83 29.891c40.78 4.679 84.93 9.761 131.64 15.109 23.32 2.66 47.31 5.43 71.84 8.25 12.27 1.402 24.65 2.812 37.15 4.25 6.37.859 12.38 1.101 19.06 2.5a99.977 99.977 0 0 1 18.71 5.859c13.67 5.782 25.82 14.813 36.1 25.782z" transform="matrix(.13333 0 0 -.13333 0 181.333)"/><path style="fill:#d5be9e;fill-opacity:1;fill-rule:nonzero;stroke:none" d="M1656.91 794.379c.94 2.262-.54 7.031 3.21 6.402.82-3.281 1.09-5.82 3.16-10.429-2.26 1.168-1.91 5.308-6.37 4.027m4.97-16.957c1.67-.391 1.36-3.242 1.79-5.192-1.4.231-2.11-.281-2.26-1.289-2.66 1.719-4.61 4.258-5.79 7.848 3.91 1.371 6.84-10.59 6.26-1.367m-41.72 36.488-155.55 20.352c-.08-6.141-.43-12.422-.74-18.524l4.18-.539c42.11-6.019 86.87-12 131.6-19.027 20.31-4.531 39.57-14.613 55.19-29.102h18.87c-.86.942-1.68 1.95-2.58 2.93-2.97 3.16-6.13 6.09-9.37 8.949 5.54-3.48 10.7-7.578 15.62-11.879h26.02c-20.98 24.41-49.96 41.45-83.24 46.84M1353.01 831.051c-2.46 2.859-2.31 6.449-3.48 12.07 1.29 1.649 5.98-9.062 3.48-12.07m-63.24 22.82c2.22 1.399 5.78-3.09 5.74-4.691-3.67-1.758-2.54 3.832-5.74 4.691m170.15-33.519c1.84 2.617 1.76 7.539 4.22 9.418-.31 1.519-.51 3.121-.82 4.64l-316.09 41.328c-.82-1.437-4.3-2.218-5.63-2.687-.51 1.437 1.64 2.34 3.6 2.969l-68.95 9.019a87.427 87.427 0 0 1-13.87 1.133c-19.8 0-38.16-6.91-52.93-18.473.82-3.25 1.64-6.527 2.54-9.73 1.06-3.321 2.11-6.598 3.17-9.731 12.38 12.071 29.06 19.461 47.22 19.461 3.64 0 7.27-.277 11.17-.937l387.39-50.633c-.2 1.57-.51 2.973-1.02 4.223" transform="matrix(.13333 0 0 -.13333 0 181.333)"/><path style="fill:#d5be9e;fill-opacity:1;fill-rule:nonzero;stroke:none" d="M1606.29 262.77c-8.87-1.051-17.74-2.071-26.45-3.079-14.22-1.64-28.16-3.242-41.99-4.851l-411.56-43.32c-22.62-3.321-45.12-1.051-65.98 6.14-3.08-2.969-5.11-8.25-9.76-7.781 2.57 3.242 4.25 8.402 8.24 8.281-20.86 7.5-40.04 19.961-55.98 36.961-28.47 30.348-42.689 70.348-40.04 112.539l14.812 209.059c-1.332-1.879-2.273-3.75-2.031-5.668-4.219-.582-5.121-.031-7.781 4.148 5.902 3.16 6.57 5.11 10.429 10.352l15.242 215.187c1.047 16.641 7.609 31.641 17.689 43.242-1.83 4.969-3.08 9.731-4.22 14.461-.39 1.989-.78 4.02-1.21 6.09-17.419-15.312-29.098-37.461-30.661-62.543l-30.66-433.078c-.547-8.64-.277-17.07.422-25.469.039-.043.078 0 .16-.043-.039-.16-.082-.277-.121-.386 3.172-37.703 18.398-72.742 44.539-100.551 15.851-16.91 35.031-29.961 55.891-38.633.82 3.512 3.09 3.633 4.81 5 .74.274-.98-4.769-3.2-5.629 18.59-7.5 38.43-11.679 58.55-11.679 7.81 0 15.74.628 23.16 1.718l540.98 56.883c13.75 2.07 26.48 6.481 38.13 12.649z" transform="matrix(.13333 0 0 -.13333 0 181.333)"/><path style="fill:#d5be9e;fill-opacity:1;fill-rule:nonzero;stroke:none" d="M910.199 424.02c-4.418 2.781 1.133 4.96 1.403 8.441 2.269-1.801-1.332-5.742-1.403-8.441m-6.219-3.79c.04 3.051 4.258-.269 3.68 3.68 5.43-1.801-1.609-8.789-3.68-3.68m20.469 341.649c-2.219-25.078-4.527-51.57-6.949-78.949-4.73-54.77-9.02-113.239-13.32-171.719-1.95-29.262-3.871-58.512-5.782-87.301-.507-7.93-.976-15.711-1.488-23.558 1.449 3.128 2.391 6.168 1.211 9.058 1.328 1.289 2.109-.621 3.359-1.211 2.739 2.781-2.531 2.821-.859 5.281 1.84-1.019 2.391-.039 2.859.969 4.25-2.34.661-7.73-.82-10.66-1.609-3.168-3.949-6.367-6.101-9.258-.27-4.453-.579-8.98-.86-13.441-.699-14.328-1.867-27.57-2.148-42.262-.192-20.976 3.359-41.328 9.687-59.957.711.508 1.762.738 3.364.578.117-2.179-.512-4.058-1.442-5.82a173.04 173.04 0 0 1 5.781-13.789c1.047 2.66 1.989 5.512 2.649 8.871.512-1.289 2.148-3.242 3.398-1.332.981-2.539-1.758-7.07-.308-9.328 2.23-.672 2.89 4.179 5.23 2.73.469 1.598-.781 1.207-1.09.43-.199 3.91.231 8.629 1.41 12.738-7.269 19.922-11.21 41.871-10.55 64.571 4.101 54.64 8.48 112.96 12.851 171.25 3.91 58.511 7.77 117.031 10.739 171.91 1.449 27.461 2.82 53.98 4.109 79.14 1.133 25.2 2.18 48.981 3.16 70.981 1.051 20.929 8.402 39.179 19.492 52.461 10.778 13.468 24.301 21.437 35.981 25.777 11.788 4.301 21.868 5.313 28.668 5.473 6.84-.16 10.51-.473 10.51-.473s-3.6.66-10.47 1.52c-6.84.429-17.23.781-29.919-2.887-12.5-3.633-27.461-10.942-40.199-24.613-12.93-13.118-23.282-33.469-25.352-56.481-2.109-21.879-4.41-45.629-6.801-70.699" transform="matrix(.13333 0 0 -.13333 0 181.333)"/><path style="fill:#d5be9e;fill-opacity:1;fill-rule:nonzero;stroke:none" d="M967.891 202.422c2.339-.082 2.5-6.563 2.769-8.672-2.379.121-2.461 6.48-2.769 8.672m127.929-39.024s-3.67-.238-10.55-.668c-6.83-.109-16.87-.07-29.45 1.61-7.85 1.051-16.76 3-26.17 5.969a19.317 19.317 0 0 1-1.45-2.149c-.31.789-.27 1.68-.08 2.66-2.3.7-4.57 1.481-6.91 2.379-.23-.469-.31-.898-.7-1.437-.67 1.168-2.11 1.988-4.18 2.578.19.308.43.43.74.5-1.64.629-3.2 1.18-4.84 1.922-15.898 7.218-32.699 17.726-48.05 32.5-5.469 5.226-10.629 11.207-15.59 17.5.121-2.703-4.289-7.071-5.27-8.672-2.109 1.789 2.93 7.219 3.59 10.5.199-.039.281-.149.43-.231-8.36 10.86-15.93 23.012-21.789 36.563-.199.469-.352.976-.551 1.449-.512-.551-1.25-.941-2.418-1.172.309-2.23 2.109-.16 2.188-3.949-3.321-3.238-5.981-7.301-8.321-11.68 2.653-4.8 5.461-9.449 8.473-13.871 1.25 1.801 2.808 3.789 5.59 6.289l2.457-.898c.551.359.941.43.941-.352l-.941.352c-1.25-.891-3.828-4.289-6.598-7.461 6.641-9.449 13.899-17.969 21.68-25.469 1.129 1.41 2.769 1.371 3.32 4.379-.43-2.34-.551-4.488-.82-6.719 1.91-1.8 3.75-3.711 5.699-5.351 17.191-14.957 35.941-24.731 53.13-30.86 1.13-.429 2.22-.66 3.35-1.058 2.35.078 5.67.199 6.14 2.539 1.13-1.481-.51-2.5-1.41-3.981 1.49-.429 3.05-.98 4.49-1.371.9.59 1.92.821 3.64-.347 0-.192-.08-.313-.12-.469 11.01-2.652 21.17-4.102 29.96-4.613 12.97-.778 23.12.511 29.96 1.293 6.8 1.168 10.43 1.796 10.43 1.796M906.09 56.988l26.922-10.148c.66 2.57 1.129 5.07.386 7.07 1.211 2.11 2.192 4.719 5.434 4.211 2.34 3.719-3.281 2.82-.902 6.57 2.379-.98 1.449-3.91 2.621-5.59 6.398 3.32 4.679 6.41 7.031 10.31-12.461 6.448-24.223 14.179-35.082 23.25-1.328-6.49-5.66-16.571-10.859-20.083-1.02-4.097 6.519-2.777 2.89-8.36 4.141-1.449 3.789 4.141 7.66 3.083 1.25-1.52-1.839-4.41-4.179-7.032-.981-1.21-1.68-2.34-1.922-3.28M824.648 114.18c-.816.308-1.597.66-2.418 1.019-.39-1.918-1.492-5.398-.468-5.59 1.949.821 2.578 2.661 2.886 4.571M808.52 94.102c1.949 1.84 4.41 3.129 7.769 3.359 2.621 4.301-3.398 2.187-3.59 4.449 2.18 1.879 5.461 1.719 7.653 3.641-1.372 4.179-.473 3.668.777 9.801.082.117.121.117.203.199-3.48 1.359-6.953 2.73-10.352 4.25-2.191-6.832-5.671-14.602-8.992-23.04 2.153-.94 4.344-1.8 6.532-2.66" transform="matrix(.13333 0 0 -.13333 0 181.333)"/><path style="fill:#d5be9e;fill-opacity:1;fill-rule:nonzero;stroke:none" d="M1300.59 947.34c4.14 1.019 4.45-6.559 6.52-10.192-5.27.274-2.31 7.032-6.52 10.192M862.969 687.539c2.582-.551 4.84 2.383 7.652-.699-2.383-1.719-4.961-1.488-7.652.699M833.051 404.18c-2.192 7.07 5.109 16.05 8.359 20.351 2.422-4.961-7.461-11.871-8.359-20.351M698.828 606.762c-2.226-1.102-4.058-.313-5.547 2.34 2.93.429 3.047.507 5 2.886l1.641-3.156c-1.641.578-2.192-.082-1.094-2.07m960.942 267.066c.62 9.262 1.75 17.152 3.2 24.57-3.17.661-6.29 1.332-9.49 1.832l-495.32 78.211c-1.4-2.421-1.75-4.921-.07-7.582-3.13-1.679-4.03 5.161-1.61 7.852l-14.33 2.269c.94-1.058 1.6-3.128 2.62-3.832-2.27-.429-3.99 1.012-5.43 3.473.27.32.54.508.82.668l-142.621 22.501c-6.207 1.01-12.539 1.48-18.789 1.48-36.41 0-69.219-16.68-91.129-42.891l-.121.082-2.699-3.551c-.93-1.211-1.871-2.43-2.77-3.68L740 767.5c.82-.898 1.328-2.578 2.031-3.75-1.441-.23-1.953-.898-1.761-1.91-1.211.308-2.301.93-3.36 1.558l-3.898-5.16c-34.492-45.539-54.731-99.718-58.602-156.679l-.191-2.809c1.64 2.301 6.133 3.629 7.07-.16-2.617-1.602-4.488-.11-7.23-2.219l-.618-9.07c.469 0 .86.039 1.329 0 .429 1.219.39 2.621.23 4.148 3.359.11 7.301.43 9.219 3.242.621-1.882 1.761-1.453 2.461-2.812.941 4.019 9.922 1.48 7.031 7.769 2.269.821 3.988.153 5.469.864 1.949 27.808 8.281 54.84 18.441 80.347L713.98 424.18l16.141 283.629a261.219 261.219 0 0 0 12.93 21.679l-2.539-115.347c.968 1.058 1.988 2.23 3.117 4.218.391-2.269-2.457-3.519.59-6.718l10.312 134.058 15.699 20.75-2.07-82.07c2.391.5 3.789-.551 4.692-2.469l8.168 98.828 14.839 19.614-3.75-114.961c.039 0 .082.039.121.039.192-.821.071-1.289-.16-1.68l-.781-23.828 16.172 153.867-1.371.121 13.75 18.16-3.82-114.648 15.031 129.418 28.359 37.5-28.898-441.41c6.558 3.011 12.5 6.09 16.367 9.492 3.082-5.863-9.418-8.082-16.57-12.652L818.32 256.68c-2.109-31.95 2.77-63.051 13.668-91.879 2.543 5 5.473 8.949 8.403 12.777-.352 2.152-2.032 3.473-3.051 5.231 4.808 4.89 3.75 9.812 7.351 16.453.348.66.778 1.359 1.207 2.066.391-1.207.821-1.527 1.372-1.488-3.911 17.859-5.508 36.371-4.258 55.238l12.929 197.774c-2.621-1.012-5.203-1.911-6.921.937 1.601.902 3.171 1.801 2.539 3.09 1.921.891 3.363-.039 4.492-2.149l28.679 437.54c1.168 17.929 7.379 34.371 17.11 48.16l3.16 4.179c17.34 21.911 44.059 35.942 73.75 35.942 4.961 0 10-.391 14.922-1.172l171.948-27.149c-2.1 4.961-4.21 10.04-6.79 15.54-.51.781.78 1.492 1.4 2.191l1.96 1.367c.62-6.758 6.25-12.269 9.69-20.078l112.69-17.809c-.55 2.457-.82 4.879-1.48 5.938 3.86-1.41 3.47-3.25 3.55-6.258l22.03-3.473c-.47 1.25-.94 2.5-1.4 3.75 2.18.153 3.67-1.718 4.84-4.296l155.98-24.653c.7 1.723 1.29 3.481 2.07 5.039-3.17 4.731-1.92 6.992-1.72 13.832 5.11-1.64 5.47-19.879 1.83-16.871-.11-.98-.15-1.679-.19-2.308l179.53-28.321c3.44-.55 6.8-1.25 10.16-1.992M954.77 59.45c0 3.64 3.55 2.152 4.64 4.26-.461.2-.93.43-1.359.63-1.141.039-1.762.351-2 .89-1.172.551-2.379 1.06-3.551 1.649-1.02-3.05-2.07-6.367 2.27-7.43M988.98 36.52c-2.769-2.22-3.32-10.43 1.219-7.258-4.109 1.949 1.68 5.27-1.219 7.258" transform="matrix(.13333 0 0 -.13333 0 181.333)"/><path style="fill:#d5be9e;fill-opacity:1;fill-rule:nonzero;stroke:none" d="m739.301 766.52-.942-1.168c1.09-.821 1.602-.903.942 1.168M749.41 151.988c2.27.203 1.57-1.718 3.129-1.988-2.309-2.93-6.84-5.121-7.66-2.422 1.531 1.524 3.641 1.293 4.531 4.41m49.809-28.707c2.301-2.691-2.457-7.66-2.5-11.48-4.34 1.289-1.68 9.25 2.5 11.48m-10.391-20.312c1.172 2.691 2.07 5.312 2.422 7.812 1.559-2.07 1.172-5.269 0-8.941 1.801-.899 3.59-1.801 5.43-2.621-.27 2.543-1.328 4.492-1.801 6.91 1.41 2.351 6.211-1.481 3.133-6.008 4.488 5.859 6.09 15 7.187 22.418a177.258 177.258 0 0 0-4.89 2.383c-.508-.274-1.09-.391-1.911-.082-.238.469-.308.82-.347 1.14-30.121 15.192-57.582 35.622-80.711 60.11-4.289-6.949-11.012-13.711-15.699-19.289 25.121-26.063 54.769-47.742 87.187-63.832M1083.59 32.7c.24 2.5 2.97 2.96 4.34 4.53 4.41-.59-1.09-4.14-4.34-4.53m-9.37 10.972c-.9.469-1.8.976-3.63 1.058 1.29 1.829 5.27 1.13 5.78 3.63 3.55-1.29-2.66-2.579-2.15-4.688m-14.88-3.281c-4.11 2.03 5.07 1.25 4.25 3.988 1.8-.277-.54-2.469 1.68-2.578.08-2.313-6.05.898-5.93-1.41m-53.68 1.52c-1.91.51.04 3.05-4.61 2.148 1.29 1.8 5.47.511 5.47 3.601 1.96-1.922 1.02-3.398-.86-5.75m-7.109-3.629c-1.012-1.64-2.61-3.12-4.41-2.89.699 2.93 3.558 4.097 4.839 6.8 1.18-.632.75-2.39-.429-3.91m-18.242 11.64c-3.2 1.407 2.191 5.24 5.711 3.708-.321-3.117-4.379-1.828-5.711-3.707m-13.118-9.653c-.351-1.48-1.293-3.359-1.101-4.449-3.629 1.52-2.852 2.54-.82 6.41 2.46.43 2.429-.55 1.921-1.96M1104.65 54.69l-38.83-5.632c-35-5.078-70.39-.27-102.379 12.89-1.371-.777-2.82-2.027-4.179-3.828-1.41-2.5.347-3.242 1.828-4.21-3.469-.712-4.449-4.692-5.738-8.29 3.046-.82 3.238 2.078 4.957 3.008 2.929-2.89-6.008-3.59-7.379-6.129 1.211-.23 3.832-4.262 4.261-2.23-.39-.47-.941-1.051-1.679-1.79 9.058-3.68 18.398-6.601 27.847-9.03-.347 1.448-.16 3.128.313 4.89.59 2.808 1.988 5.781 3.277 8.281 3.36-1.102-3.039-2.543-.187-3.992 6.008-.39 5.578 6.02 9.718 7.543 1.102-1.012-1.71-3.793-3.671-6.563-1.911-2.77-2.297-5.738 2.23-6.289-3.519-1.949-2.23-3.05-2.578-6.21 14.689-3.16 29.729-4.84 44.919-4.84 10.59 0 21.37.78 32 2.3l20.97 3.051c7.35 6.758 2.85 15.23 13.63 21.48 1.22-.152.59-.98.59-1.562 3.13.192 1.8 3.79-2.54 3.281 1.64.942 1.09 2.66 2.62 3.871M772.191 674.18c-1.293 1.871-2.621 4.3-4.101 6.949l-2.07-81.719zM846.559 188.629c.281 2.422 1.64 5.391 1.453 7.422-.043.121-.043.277-.082.398-.16.621-.391 1.129-.981 1.481-2.461-3.008-6.25-8.75-.39-9.301M941.84 43.52l1.129-.43c-.117.582-.117 1.289-.387 1.75-.242-.39-.473-.89-.742-1.32M851.602 157.539c.82-1.328-5.313-9.57-9.84-7.23 3.078 2.929 6.25 5.632 9.84 7.23m26.168-77.418c-.43-3.95-3.391-3.64-4.84-5.941-2.231.62.859 4.8-3.59 3.941l2.379 6.18c2.89.347 1.722-1.922 1.09-3.871 2.39 1.332 3.671 1.21 4.961-.309m-22.418 11.79c-4.332 1.37 1.449 6.25 3.277 8.948 1.25-.429-.078-2.62 1.57-2.77-2-1.41-4.418-2.038-4.847-6.179m-15.313 3.79c-2.66.472-4.379-.74-5.16-3.63-3.828 4.918 5.742 3.91 5.742 9.02 2.969 4.109.16-3.668-.582-5.39m.66 49.179c5.711 3.949 12.11 6.101 15.821 14.73 5.75-1.488-2.301-15.898-7.18-16.289.89 3.36 3.551 2.578 4.211 6.559-4.801-1.25-8.43-5.469-10.231-10 1.371-2.609 2.621-5.27 4.102-7.848 2.066 3.168 3.867 6.949 6.957 7.699.582-2.031-3.438-4.89-6.328-8.832 7.379-12.5 16.09-24.339 26.008-35.386l-37.539 14.136-1.79.192c.04.199.11.281.192.43l-7.301 2.742c-.711-.903-1.371-1.723-1.641-2.352 6.52-1.601-8.949-9.68-10.511-19.45.582-.19 1.172-.51 1.801-.741l.5-.16c1.449 1.172 2.621 1.25 2.191-.82l1.949-.739c5.121 6.29 5.82 20.629 15.629 18.051-.738-1.531-.551-2.391.313-2.742-5.352.32-3.633-12.297-9.223-11.598.473-2.192-.469-4.102-1.289-5.781l4.18-1.559c.75 2.34 2.23 4.098 4.89 4.14-1.801-2.19-2.23-3.71-2.351-5.12l42.351-15.942c.86 2.973 1.32 6.45 2.461 8.13 4.758-.157-.941-7.15 3.359-7.54 2.731.192 2.461 5.23 4.879 5.82-.16 1.641-1.757 2.38-4.019 2.692 6.211 10.55 4.058 16.719 10.43 26.527 0-5.078 2.531-3.789 5.5.621 1.062-2.609.671-9.058-1.75-11.008 1.359-2.39 6.91-2.23 8.55-4.46 4.059.859 3.442 3.558 4.41 5.628-5.191 4.532-10.269 9.262-15 14.34-20.968 22.379-35.82 48.75-44.289 77.141-.511-1.051-.98-1.988-1.332-2.692-3.91-4.339-10.16-14.296-15.347-24.218 1.988-4.84 4.097-9.61 6.437-14.301M669.262 525.309c1.289-1.637 2.808-3.508 4.758-6.25-3-2.258-.622-6.637 2.859-11.399-3.09 2.031-5.668 5.82-8.168 9.68L658.59 368.09c.82-.43 1.332-1.61 2.539-1.25-.391-.36-1.52-1.41-2.77-2.11l-4.808-70.39c-2.852-42.352 11.219-84.461 38.437-116.84 1.332 5.738 4.141 15.16 9.063 13.672-2.071 2.93.59 6.488 3.519 10.238-3.398 4.68-6.41 9.61-9.179 14.641-3.121 1.57-4.301-4.41-7.5-2.5 1.089 5.238 3.988 3.597 5.937 5.429-11.68 22.54-17.308 48.051-15.59 73.68l10.434 153.16c-2.422 2.731-4.844 6.68-4.184 8.871 1.883-1.171 3.133-2.89 4.422-5.043l9.641 141.832c-9.801-4.41-17.813-6.832-25.391-8.589zM744.219 611.602c-1.207-.082-2.578-1.172-3.789-1.25l-1.481-67.422zM1108.01 55.16l-.12-.36c.35.122.63.321.98.47zM1673.36 874.648c-.43 4.18 1.95 5.192.82 10.192 3.71-.578 4.49-12.301-.82-10.192M1779.8 767.07h26.02c-19.22 64.77-71.17 114.379-137.58 130.2-.7-2.5-1.52-5-2.77-7.469.9-1.321 2.23-2.223 3.71-3.039-1.21-4.032-2.54-8.711-.7-12.852-2 .578-2.07-.98-3.64-.898.16-.16.2-.352.28-.512 54.02-13.828 96.68-53.48 114.68-105.43" transform="matrix(.13333 0 0 -.13333 0 181.333)"/><path style="fill:#d5be9e;fill-opacity:1;fill-rule:nonzero;stroke:none" d="M1142.42 43.95c-1.13-.59-3.32-.36-3.47-1.68-5.83 1.789 4.92 2.34-2.47 3.671 4.07.97 5.86 3.63 7.07 6.828 3.91-2.5-7.65-6.91-1.13-8.82m-7.93 3.59c-3.67.473-1.13 3.05-.51 5l5.16-.629c.16-2.14-1.33-3.39-.47-4.14-.51-2.11-3.01 2.109-4.18-.23m-2.54-8.79c-4.65 1.02.75 5.512-2.26 7.148 5.39-1.718 2.42-4.726 2.26-7.148m596.1 106.172L1114.38 56.09c-.32-2.54-2.62-5.43-6.18-3.63-.27-1.288 1.49-1.87 4.53-1.948-4.1-3.211-4.33-4.383-1.87-7.23-3.83.859-2.74-2.34-7.27-.942-.74-1.29.94-1.64.04-2.961 1.45.46 2.58 1.172 3.6 1.95 3.36-.938-2.93-2.028-1.8-4.34-1.02.202-1.05.82-2.38.902.47-.622.93-1.29.5-2.301-2.18-.078-1.99.82-3.71.969-.5-1.91-1.09-3.86 2.66-3.938-1.88-.941-2.7-2.27-3.01-3.672l25.12 3.63c1.17 1.91 2.73 3.671 4.1 5.042 2.03-.59.12-2.852-.35-4.531l32.34 4.719c-.54.59-1.56 1.25-2.73 1.37.98 2.731 3.55-.628 5.74.743-.98 3.52 2.5 6.84 4.18 9.726 3.71-1.988-1.37-6.449 1.8-8.476-1.96-.742-3.13-1.64-3.95-2.653l565.86 81.911c75.12 10.781 130.24 70.23 138.13 142.34h-24.96c-7.78-59.879-54.03-108.86-116.72-117.848" transform="matrix(.13333 0 0 -.13333 0 181.333)"/></svg>